<?xml version="1.0" standalone="no"?>
<!DOCTYPE svg PUBLIC "-//W3C//DTD SVG 1.1//EN" "http://www.w3.org/Graphics/SVG/1.1/DTD/svg11.dtd" >
<!--
2013-9-30: Created.
-->
<svg>
<metadata>
Created by iconfont
</metadata>
<defs>

<font id="iconfont" horiz-adv-x="1024" >
  <font-face
    font-family="iconfont"
    font-weight="500"
    font-stretch="normal"
    units-per-em="1024"
    ascent="896"
    descent="-128"
  />
    <missing-glyph />
    
    <glyph glyph-name="xinxi" unicode="&#58882;" d="M512 841.728q95.232 0 178.688-36.352t145.408-98.304 98.304-145.92 36.352-179.2-36.352-178.688-98.304-145.408-145.408-98.304-178.688-36.352-179.2 36.352-145.92 98.304-98.304 145.408-36.352 178.688 36.352 179.2 98.304 145.92 145.92 98.304 179.2 36.352zM567.296 445.44q0 24.576-15.872 41.472t-39.424 16.896-39.936-16.896-16.384-41.472l0-343.04q0-24.576 16.384-39.424t39.936-14.848 39.936 15.36 16.384 39.936zM512 572.416q29.696 0 50.688 20.992t20.992 50.688-20.992 50.688-50.688 20.992-51.2-20.992-21.504-50.688 21.504-50.688 51.2-20.992z"  horiz-adv-x="1024" />

    
    <glyph glyph-name="bangzhu" unicode="&#58883;" d="M514.048 841.728q95.232 0 178.688-36.352t145.92-98.304 98.304-145.408 35.84-178.688-35.84-178.176-98.304-145.408-145.92-98.304-178.688-35.84-178.176 35.84-145.408 98.304-98.304 145.408-35.84 178.176 35.84 178.688 98.304 145.408 145.408 98.304 178.176 36.352zM515.072 69.632q26.624 0 44.544 17.92t17.92 43.52q0 26.624-17.92 44.544t-44.544 17.92-44.544-17.92-17.92-44.544q0-25.6 17.92-43.52t44.544-17.92zM567.296 321.536q-1.024 16.384 20.48 34.816t48.128 40.96 49.152 50.688 24.576 65.024q2.048 39.936-8.192 74.752t-33.792 59.904-60.928 39.936-87.552 14.848q-62.464 0-103.936-22.016t-67.072-53.248-35.84-64.512-9.216-55.808q1.024-26.624 16.896-38.912t34.304-12.8 33.792 10.24 15.36 31.232q0 12.288 7.68 30.208t20.992 34.304 32.256 27.648 42.496 11.264q46.08 0 73.728-23.04t25.6-57.856q0-17.408-10.24-32.256t-26.112-28.672-33.792-27.648-33.792-28.672-26.624-32.256-11.776-37.888l1.024-38.912q0-15.36 14.336-29.184t37.888-14.848q23.552 1.024 37.376 15.36t12.8 32.768l0 24.576z"  horiz-adv-x="1024" />

    
    <glyph glyph-name="wenjianshangbao" unicode="&#58889;" d="M496.22015999999996 66.63654399999996v13.4656c0 3.586048 0.27750400000000003 7.808 0.874496 12.59008h-214.20032c-15.021056000000002 0-27.890687999999997 5.338112000000001-38.56896 16.100352-10.718208 10.756096-16.057344 23.904256-16.057344 39.442432000000004 0 15.542272 5.339136000000001 28.850176 16.057344 39.925760000000004 10.678272000000002 11.073536 23.547904 16.574464 38.56896 16.574464h252.331008c21.952512 35.304448 51.040256 63.43168 87.13932799999999 84.310016 36.139008000000004 20.958208 75.90195200000001 31.396864 119.252992 31.396864 4.624384 0 9.523200000000001-0.159744 14.741504-0.478208 5.180416-0.23859200000000003 10.396672-0.7168 15.618048000000002-1.354752V541.017856H645.356544c-16.177152 0-30.042112000000003 3.745792-41.636864 11.236352-11.554816 7.49056-20.918272 16.734208-28.170240000000003 27.810816-7.211008 10.996736-12.551168 23.109632-16.017408 36.257792-3.4682880000000003 13.149184-5.221376 25.4208-5.221376 36.815872000000006V765.179648h-245.27872-86.817792-69.80608000000001c-8.327168 0-16.656384-3.26656-22.989824000000002-9.801727999999999-6.375424-6.6140159999999995-9.523200000000001-15.220736-9.523200000000001-23.826432v-81.998848-31.157248-548.3315200000001h-0.039936v-113.156096c0-8.605696 3.187712-17.214464 9.522176-23.829504 6.336512-6.534144 14.662656000000002-9.797632 22.990848000000003-9.797632h76.978176c0.7976960000000001-0.079872 1.594368-0.079872 2.39104-0.079872h307.83488c-13.865984000000001 20.320256-24.546304 42.55232-32.075776000000005 66.778112C499.963904 14.2026239999999 496.22015999999996 39.78111999999999 496.22015999999996 66.63654399999996zM244.327424 412.799744c10.678272000000002 10.75712 23.547904 16.096256 38.56896 16.096256H608.06144c15.02208 0 27.891712000000002-5.339136000000001 38.608896-16.096256 10.678272000000002-10.758144 16.018432-23.906304000000002 16.018432-39.445504 0-15.539200000000001-5.34016-28.847104-16.018432-39.921664-10.717184-11.076608-23.586816-16.576511999999997-38.608896-16.576511999999997H282.896384c-15.021056000000002 0-27.890687999999997 5.499904000000001-38.56896 16.576511999999997-10.718208 11.07456-16.057344 24.384512-16.057344 39.921664C228.27007999999998 388.89344 233.609216 402.042624 244.327424 412.799744zM920.6773760000001 142.01830399999994c-10.117120000000002 23.912448-23.871488000000003 44.78976-41.195519999999995 62.72-17.33632 17.932288-37.568512000000005 32.19456-60.68224 42.630144-23.11168 10.443776-47.9744 15.696896-74.58816 15.696896-26.019840000000002 0-50.56512-5.25312-73.71776-15.696896-23.10144-10.433536-43.34592-24.697856-60.672000000000004-42.630144-17.33632-17.93024-31.087616000000004-38.807552-41.204736-62.72-10.118144000000001-23.90016-15.174656-49.326080000000005-15.174656-76.25728 0-27.494400000000002 5.056512-53.23776 15.174656-77.13792 10.128384-23.910400000000003 23.870464000000002-44.78976 41.204736-62.72 17.32608-17.93024 37.57056-32.193536 60.672000000000004-42.62912 23.15264-10.444799999999999 47.697919999999996-15.69792 73.71776-15.69792 26.61376 0 51.477504 5.25312 74.58816 15.69792 23.102464 10.43456 43.34592 24.698880000000003 60.68224 42.62912 17.32608 17.93024 31.080448 38.809599999999996 41.195519999999995 62.72 10.117120000000002 23.90016 15.174656 49.643519999999995 15.174656 77.13792C935.852032 92.69222400000001 930.7944960000001 118.11814399999992 920.6773760000001 142.01830399999994zM776.659968 80.15948800000001v-136.129536c0-16.52736-13.392896-29.92128-29.91104-29.92128-8.261632 0-15.737856 3.34848-21.154816 8.76544-5.415935999999999 5.41696-8.766464000000001 12.89216-8.766464000000001 21.15584V80.15948800000001H624.2304l123.38995200000001 121.612288 123.38995200000001-121.612288H776.659968zM673.8841600000001 598.392576h0.157696 97.937408v14.344192V731.551488c0 8.605696-3.186688 17.212416-9.522176 23.826432-6.377472 6.534144-14.701568 9.801727999999999-23.02976 9.801727999999999H610.692096h-1.753088-0.079872v-99.529728c0-17.212416 6.335488000000001-34.424832 19.046400000000002-47.57401600000001C640.6144 605.006592 657.26976 598.392576 673.8841600000001 598.392576z"  horiz-adv-x="1024" />

    
    <glyph glyph-name="lianjie" unicode="&#58884;" d="M614.3300736 484.4193568c-6.59172907 6.58954667-13.61788587 12.52963413-20.85798187 18.03747733l-0.01309866-0.0120064c-7.45185173 7.1669632-17.570304 11.5810976-28.7257056 11.5810976-22.8958624 0-41.45508907-18.56031893-41.45508907-41.45508906 0-10.13045867 3.63914987-19.4095264 9.67638293-26.61032747l-0.0010912 0c0.0010912-0.0010912 0.00327467-0.00327467 0.00545814-0.00436587 2.90018667-3.45904747 6.35050133-6.44109867 10.2243296-8.8020704 3.90875627-3.22327787 7.74547307-6.39743787 11.33332053-9.98528533l3.41757013-3.41866133c42.96467093-42.91118613 30.1381408-116.84246613-12.82652906-159.80822827L361.76828053 80.6571136c-42.96357867-42.91118613-112.8125504-42.91118613-155.77831146 0l-3.4448576 3.44704107c-42.96685333 42.96357867-42.96685333 112.86385173 0 155.72373546l80.997824 80.97053547c10.39242453 8.24866667 17.06383573 20.98023253 17.06383573 35.27704853 0 24.86715947-20.1583136 45.02547307-45.02547307 45.02547307-9.38385387 0-18.0942368-2.87289813-25.30704426-7.7836768-0.0229216 0.04802667-0.04693547 0.09387093-0.07094934 0.14298987l-0.86339733-0.80773014c-3.1883488-2.29220587-6.07107093-4.98063573-8.56084373-8.0107136l-84.1741664-78.76456c-79.12367253-79.17824853-79.12367253-208.67478293 0-287.7427872l3.41757013-3.41647786c79.12367253-79.06909653 208.56453867-79.06909653 287.6882112 0l183.28478293 183.33935893c79.01451947 79.11930667 85.7143104 203.9299168 6.70088214 282.99901333L614.3300736 484.4193568zM878.52754133 753.2754592l-3.41757013 3.41757013c-79.12258133 79.12367253-208.56344747 79.12367253-287.68712 0L404.13806933 573.3547616000001c-79.12367253-79.12367253-83.4810464-193.38249493-4.35737386-272.55746987l3.36299306-3.31169173c3.5933056-3.5922144 7.32305173-6.97922133 11.13029654-10.22760427 2.75610453-3.07810453 5.99357227-5.71305067 9.592336-7.7967744 0.02728853-0.0218304 0.05566827-0.04475307 0.08295573-0.06658346l0.0120064 0.0109152c5.73597227-3.29859307 12.3822784-5.1956672 19.4750176-5.1956672 21.6144096 0 39.13559467 17.52336853 39.13559467 39.13559466 0 6.10054187-1.39715413 11.87471787-3.88801814 17.02235734l0 0c-5.17383573 11.61711787-14.85895147 18.68911893-21.55765013 25.3889088l-3.36408533 3.30950826c-42.96357867 42.96357867-26.6485312 105.382528 16.31504853 148.34610774l183.39284373 183.28587413c42.85770133 42.96576213 112.73068587 42.96576213 155.69644694 0l3.41975253-3.36299307c42.96467093-42.96685333 42.96467093-112.89441387 0-155.8056l-80.7325824-80.78715946c-10.9829408-8.1373312-18.105152-21.18980587-18.105152-35.90685974 0-24.66522667 19.99567573-44.66199467 44.66199467-44.66199466 8.58485653 0 16.60102827 2.4275552 23.40778773 6.62556693 0.05130133-0.0873216 0.09932907-0.16809493 0.1506304-0.2565088l1.2519808 1.1559264c3.85745493 2.58255147 7.2837568 5.7534368 10.16429547 9.3783968l85.0844992 78.51023467C957.65121387 544.70982933 957.65121387 674.15287893 878.52754133 753.2754592z"  horiz-adv-x="1024" />

    
    <glyph glyph-name="weibiaoti2" unicode="&#58943;" d="M424.763392 206.411776l259.528704 259.524608c73.37984-37.507072 165.515264-25.591808 226.932736 35.823616 61.417472 61.41952 73.332736 153.552896 35.825664 226.934784l-168.658944-168.656896-85.05344 85.055488 168.654848 168.656896c-73.37984 37.50912-165.515264 25.593856-226.932736-35.823616-61.417472-61.417472-73.332736-153.552896-35.825664-226.934784L339.707904 291.467264c-73.37984 37.507072-165.515264 25.591808-226.932736-35.823616C51.359744 194.228224 39.44448 102.0928 76.949504 28.708864l168.656896 168.656896 85.057536-85.055488-168.656896-168.656896c73.383936-37.505024 165.517312-25.591808 226.936832 35.827712C450.357248 40.896512 462.27456 133.02784 424.763392 206.411776z"  horiz-adv-x="1024" />

    
    <glyph glyph-name="yichu" unicode="&#59076;" d="M513.554914 835.77536c-248.291946 0-449.583438-201.303772-449.583438-449.625394 0-248.299109 201.292516-449.595718 449.583438-449.595718 248.281713 0 449.63665 201.296609 449.63665 449.595718C963.192587 634.471588 761.836627 835.77536 513.554914 835.77536zM735.450676 345.02533700000004L291.70827 345.02533700000004c-22.716374 0-41.135886 18.415418-41.135886 41.139979 0 22.716374 18.419512 41.132816 41.135886 41.132816l443.742407 0c22.720468 0 41.139979-18.416442 41.139979-41.132816C776.590656 363.44075499999997 758.171144 345.02533700000004 735.450676 345.02533700000004z"  horiz-adv-x="1024" />

    
    <glyph glyph-name="wenbenbianjitianchong" unicode="&#59092;" d="M392.768 127.48800000000006c19.488 24.192 42.432 46.368 64.224 68.544 59.328 60.384 118.752 120.864 178.08 181.248 55.392 56.352 110.784 112.704 166.08 169.056 12.384 12.576 24.192 27.936 38.016 38.88 14.4 11.328 24 4.224 35.232-7.296 9.888-10.176 19.488-20.64 29.184-30.912 2.208-2.4 14.976-12.384 14.976-15.84 0 0-0.288 242.304-0.288 242.304 0 36.192-29.472 65.664-65.664 65.664L159.296 839.136c-36.192 0-65.664-29.472-65.664-65.664l0-761.856c0-36.192 29.472-65.664 65.664-65.664l172.224-0.864 34.176 128.16C365.792 73.24800000000005 373.76 103.87199999999996 392.768 127.48800000000006zM464.384 458.784L226.4 458.784c-11.232 0-20.352 9.12-20.352 20.352 0 11.232 9.12 20.352 20.352 20.352l237.984 0c11.232 0 20.352-9.12 20.352-20.352C484.832 467.904 475.616 458.784 464.384 458.784zM630.08 566.2080000000001L226.4 566.2080000000001c-11.232 0-20.352 9.12-20.352 20.352 0 11.232 9.12 20.352 20.352 20.352L630.08 606.912c11.232 0 20.352-9.12 20.352-20.352C650.432 575.328 641.312 566.2080000000001 630.08 566.2080000000001zM742.784 673.7280000000001L226.4 673.7280000000001c-11.232 0-20.352 9.12-20.352 20.352 0 11.232 9.12 20.352 20.352 20.352l516.384 0c11.232 0 20.352-9.12 20.352-20.352C763.136 682.848 754.016 673.7280000000001 742.784 673.7280000000001zM962.528 393.888L867.776 488.64c-10.08 10.08-27.744 10.08-37.824 0L433.472 92.35199999999998c-1.632-1.632-2.88-3.744-3.456-5.952l-39.648-142.176c-1.248-4.512-0.096-9.408 3.072-12.864 2.592-2.784 6.24-4.416 9.984-4.416 0.864 0 1.632 0.096 2.496 0.192L559.04-44.15999999999997c2.688 0.48 5.184 1.824 7.104 3.744l396.48 396.384C972.992 366.432 972.992 383.424 962.528 393.888zM901.184 315.264c-5.088-5.088-13.056-5.376-17.856-0.576l-94.56 94.56c-4.8 4.8-4.512 12.768 0.576 17.856 5.088 5.088 13.152 5.376 17.856 0.576l94.56-94.56C906.56 328.41600000000005 906.272 320.352 901.184 315.264z"  horiz-adv-x="1024" />

    
    <glyph glyph-name="huifu" unicode="&#59034;" d="M1024-96.032c0 0-98.112 554.688-597.312 554.688L426.688 672.032 0 288.032l426.688-358.4L426.688 175.712C697.6 175.712 882.688 152.032 1024-96.032L1024-96.032zM1024-96.032"  horiz-adv-x="1024" />

    
    <glyph glyph-name="zuixin" unicode="&#59027;" d="M497.502309 605.212194M512.362762 831.978894c-247.632937 0-448.382077-200.74914-448.382077-448.3831 0-247.63703 200.74914-448.381054 448.382077-448.381054 247.638053 0 448.382077 200.744024 448.382077 448.381054C960.744839 631.230778 760.000815 831.978894 512.362762 831.978894zM326.818929 198.05298400000004l-3.331885 3.331885c6.66377 27.768437 9.995655 56.498782 9.995655 86.212524 0 3.604084-1.665942 6.800893-4.997827 9.579169l0 6.66377 53.726645 12.911054c-2.7793-30.819936-8.05649-54.702879-15.826454-71.635527C357.774965 225.12455 344.583524 209.44135900000003 326.818929 198.05298400000004zM452.181101 225.95752100000004c-1.945305-19.711947-12.221346-30.676673-30.819936-32.901341-22.769586 0-42.345434 7.640004-58.724473 22.906709l6.66377 8.329712c8.602935-5.551436 14.017248-8.329712 16.242939-8.329712 4.164856 0 6.247284 2.778276 6.247284 8.329712L391.790686 339.658096l-17.908882 0c-7.777127 0-19.159362-3.195785-34.151821-9.579169l-20.825304 24.156166 72.886007 0 0 47.062875-20.825304 0c-8.05649 0-19.437701-3.195785-34.151821-9.579169l-21.240767 24.572652 43.314505 0c-6.111185 5.551436-9.722432 14.71412-10.828626 27.488051-1.665942 18.877953-5.974062 36.234249-12.911054 52.060703l0.832971 1.249457-18.741853 21.657252 74.55195 0c-6.944156 23.323195-17.219173 40.672328-30.819936 52.060703l3.331885 7.913227c7.217379 0 19.294438-1.809205 36.234249-5.414313 17.764596-3.891633 30.40345-9.996678 37.900192-18.325367 3.604084-5.557576 5.414313-12.773931 5.414313-21.657252-1.666966-6.390547-4.445242-11.245112-8.330736-14.576997l21.657252 0c6.383384 0 17.765619 3.188622 34.151821 9.579169l21.240767-24.156166L372.632347 504.169917c-6.390547 0-14.576997-1.945305-24.572652-5.829775 14.993482-9.722432 27.624151-20.134573 37.900192-31.236422 8.329712-8.609075 12.494569-17.492396 12.494569-26.65508-1.113357-11.388375-4.724605-19.437701-10.828626-24.156166l32.485879 0c8.883321 14.993482 15.826454 36.09201 20.824281 63.305815 0 1.940189-1.665942 3.051499-4.997827 3.331885l0 4.582365 73.30147 13.326517c-14.72026-42.481534-38.180578-70.666456-70.38607-84.546581l24.573675 0c6.383384 0 17.764596 3.188622 34.151821 9.579169l21.239743-24.572652-66.636676 0 0-47.062875 9.579169 0c6.383384 0 17.764596 3.331885 34.151821 9.995655l21.240767-24.572652-64.971757 0L452.182125 225.95752100000004zM676.666852 435.449789l0-246.976998-63.305815 0L613.361037 435.449789 583.789535 435.449789l0-208.243835c-1.944282-22.762423-15.409968-34.150798-40.399105-34.150798-16.659425 0-30.40345 5.829775-41.232077 17.492396-4.164856-3.885494-8.889461-5.830799-14.160511-5.830799-14.72026 0-22.906709 7.496741-24.572652 22.490224 0 3.058662 0.273223 4.724605 0.831948 4.998851 2.772136 11.101849 4.164856 21.930475 4.164856 32.485879 0 13.600763-2.225691 31.509644-6.66377 53.726645l6.66377 3.331885c13.326517-11.107989 24.155143-23.882943 32.485879-38.316677 6.66377-11.94096 9.995655-24.714891 9.995655-38.315654 0-9.996678-1.249457-18.46249-3.748371-25.405623 5.27105-4.718465 9.162684-7.080256 11.661597-7.080256 1.666966 0 2.772136 3.891633 3.331885 11.661597L522.148639 518.7469140000001c0 4.718465-2.778276 7.913227-8.328689 9.579169l0 6.66377 69.968561 17.908882 0-16.242939c16.659425 6.105045 32.070416 13.1853 46.230927 21.24179 8.329712 5.270027 12.493545 10.68434 12.493545 16.241916l4.998851 1.25048 58.307987-48.728818c-28.322046-4.445242-69.001537-7.080256-122.031311-7.913227l0-68.303642 74.967412 0c8.884344 0 20.825304 4.301979 35.817764 12.911054l14.57802-27.904537L676.666852 435.450812z"  horiz-adv-x="1024" />

    
    <glyph glyph-name="banjie" unicode="&#58924;" d="M409.438 602.4h209.846c28.963 0 52.459 23.362 52.459 52.195v104.395h-104.914v52.191h-104.928v-52.191h-104.918v-104.395c0-28.834 23.482-52.195 52.454-52.195zM461.903 706.795h104.928v-52.2h-104.928v52.2zM829.136 758.981h-104.932v-104.386h52.459v-574.137h-524.606v574.137h52.474v104.386h-104.933c-28.963 0-52.459-23.362-52.459-52.195v-678.523c0-28.829 23.501-52.195 52.459-52.195h629.539c28.958 0 52.454 23.366 52.454 52.195v678.523c0 28.834-23.491 52.195-52.454 52.195zM304.529 132.65300000000002h419.674v469.752h-52.459c0-28.829-23.496-52.2-52.459-52.2h-209.846c-28.977 0-52.454 23.371-52.454 52.2h-52.454v-469.752zM412.4 403.301l61.2-61.132 142.8 142.646 40.8-40.757-183.6-183.398-102 101.885 40.8 40.757z"  horiz-adv-x="1024" />

    
    <glyph glyph-name="youjian" unicode="&#58927;" d="M506.375 350.25c5.625 0 11.25 0 11.25 0L962 642.75 962 654 62 654l0-11.25L506.375 350.25zM534.5 310.875C528.875 305.25 517.625 305.25 512 305.25c-5.625 0-11.25 0-16.875 5.625L62 592.125 62 46.5c0-22.5 16.875-45 45-45l815.625 0c22.5 0 45 16.875 45 45L967.625 592.125 534.5 310.875z"  horiz-adv-x="1031" />

    
    <glyph glyph-name="guanbi2fill" unicode="&#59172;" d="M512 832c-247.00852 0-448-200.960516-448-448S264.960516-64 512-64c247.00852 0 448 200.960516 448 448S759.039484 832 512 832zM694.752211 246.015966c12.480043-12.54369 12.447359-32.768069-0.063647-45.248112-6.239161-6.208198-14.399785-9.34412-22.591372-9.34412-8.224271 0-16.415858 3.135923-22.65674 9.407768l-137.60043 138.016718-138.047682-136.576912c-6.239161-6.14455-14.368821-9.247789-22.496761-9.247789-8.255235 0-16.479505 3.168606-22.751351 9.504099-12.416396 12.576374-12.320065 32.800753 0.25631 45.248112l137.887703 136.384249-137.376804 137.824056c-12.480043 12.512727-12.447359 32.768069 0.063647 45.248112 12.512727 12.512727 32.735385 12.447359 45.248112-0.063647l137.567746-137.984034 138.047682 136.575192c12.54369 12.447359 32.831716 12.320065 45.248112-0.25631 12.447359-12.576374 12.320065-32.831716-0.25631-45.248112L557.344443 383.872705 694.752211 246.015966z"  horiz-adv-x="1024" />

    
    <glyph glyph-name="total" unicode="&#58885;" d="M59.733333 384l85.333333 46.933333c4.266667 0 8.533333 0 12.8 0l349.866667-192c4.266667 0 8.533333 0 12.8 0l349.866667 192c4.266667 0 8.533333 0 12.8 0l85.333333-46.933333-443.733333-247.466667c-4.266667 0-8.533333 0-12.8 0L59.733333 384zM81.066667 593.066667l426.666667 234.666667c4.266667 0 8.533333 0 12.8 0l426.666667-234.666667c8.533333-4.266667 8.533333-17.066667 0-21.333333l-426.666667-234.666667c-4.266667 0-8.533333 0-12.8 0l-426.666667 234.666667C72.533333 580.266667 72.533333 588.8 81.066667 593.066667zM516.266667 38.39999999999998l349.866667 192c4.266667 0 8.533333 0 12.8 0l85.333333-46.933333-443.733333-247.466667c-4.266667 0-8.533333 0-12.8 0L59.733333 183.46666700000003l85.333333 46.933333c4.266667 0 8.533333 0 12.8 0l349.866667-192C507.733333 34.13333299999999 516.266667 34.13333299999999 516.266667 38.39999999999998z"  horiz-adv-x="1024" />

    
    <glyph glyph-name="tixing" unicode="&#58892;" d="M730.45333333-125.72444480000001c-136.53333333 0-245.76 109.22666667-245.76 245.76s109.22666667 245.76 245.76 245.76 245.76-109.22666667 245.76-245.76S862.4355552-125.72444480000001 730.45333333-125.72444480000001zM757.76 306.63111146999995l-54.61333333 0 0-273.06666667 54.61333333 0L757.76 306.63111146999995zM757.76-16.49777813000003l-54.61333333 0L703.14666667-71.11111146999997l54.61333333 0L757.76-16.49777813000003zM621.22666667 488.6755552c-4.55111147-18.2044448-4.55111147-31.85777813-9.10222187-45.51111147-109.22666667-77.36888853-182.0444448-204.8-182.0444448-350.4355552 0-59.1644448 13.65333333-113.77777813 31.85777813-163.84L93.29777813-71.11111146999997c-22.7555552 0-40.96 22.7555552-40.96 45.51111147 0 0 0 0 0 0l0 0c0 0 0 168.39111147 109.22666667 232.10666667 68.26666667 40.96 40.96 9.10222187 127.43111147 45.51111146 86.47111147 40.96 81.92 36.40888853 81.92 36.40888854l0 86.47111146c0 0-36.40888853 27.30666667-45.51111147 109.22666667-22.7555552-4.55111147-27.30666667 27.30666667-31.85777813 45.51111147 0 18.2044448-13.65333333 81.92 13.65333333 72.81777813C302.64888853 647.9644448 298.09777813 684.37333333 298.09777813 707.12888853c4.55111147 68.26666667 72.81777813 141.0844448 172.94222187 145.6355552 118.32888853-4.55111147 163.84-77.36888853 172.94222187-145.6355552 0-18.2044448-4.55111147-54.61333333-9.10222187-95.57333333 27.30666667 4.55111147 13.65333333-54.61333333 13.65333333-72.81777813C648.53333333 511.43111147 643.98222187 484.1244448 621.22666667 488.6755552z"  horiz-adv-x="1024" />

    
    <glyph glyph-name="zhankai" unicode="&#58923;" d="M911.2 228L400.8 228c-24.8 0-44.8 21.6-44.8 48s20 48 44.8 48l510.4 0c24.8 0 44.8-21.6 44.8-48S936 228 911.2 228zM911.2 452L400.8 452c-24.8 0-44.8 21.6-44.8 48s20 48 44.8 48l510.4 0c24.8 0 44.8-21.6 44.8-48S936 452 911.2 452zM908 668l-781.6 0c-26.4 0-49.6 20-50.4 46.4-0.8 27.2 20.8 49.6 48 49.6l781.6 0c26.4 0 49.6-20 50.4-46.4C956.8 690.4 935.2 668 908 668zM76 228.79999999999995L76 547.2c0 0 0 0 0 0l223.2-159.2c0 0 0 0 0 0L76 228.79999999999995C76 228 76 228 76 228.79999999999995zM124 108l781.6 0c26.4 0 49.6-20 50.4-46.4 0.8-27.2-20.8-49.6-48-49.6l-781.6 0c-26.4 0-49.6 20-50.4 46.4C75.2 85.60000000000002 96.8 108 124 108z"  horiz-adv-x="1024" />

    
    <glyph glyph-name="shousuo" unicode="&#58925;" d="M911.2 228L400.8 228c-24.8 0-44.8 21.6-44.8 48s20 48 44.8 48l510.4 0c24.8 0 44.8-21.6 44.8-48S936 228 911.2 228zM911.2 452L400.8 452c-24.8 0-44.8 21.6-44.8 48s20 48 44.8 48l510.4 0c24.8 0 44.8-21.6 44.8-48S936 452 911.2 452zM908 668l-784 0c-26.4 0-48 21.6-48 48 0 26.4 21.6 48 48 48l784 0c26.4 0 48-21.6 48-48C956 689.6 934.4 668 908 668zM300 228l-224 160 224 160L300 228zM124 108l784 0c26.4 0 48-21.6 48-48s-21.6-48-48-48l-784 0c-26.4 0-48 21.6-48 48S97.6 108 124 108z"  horiz-adv-x="1024" />

    
    <glyph glyph-name="weibiaoti27" unicode="&#58926;" d="M196 388m-88 0a11 11 0 1 0 176 0 11 11 0 1 0-176 0ZM516 388m-88 0a11 11 0 1 0 176 0 11 11 0 1 0-176 0ZM836 388m-88 0a11 11 0 1 0 176 0 11 11 0 1 0-176 0Z"  horiz-adv-x="1024" />

    
    <glyph glyph-name="chazhao" unicode="&#58929;" d="M895.50696297 7.2893629699999565c-22.33078518-22.33078518-59.22512592-22.33078518-82.52681482 0L632.39205925 188.84835554999995c-54.37060741-38.83614815-121.36296297-62.13783703-193.20983703-62.13783703-182.5298963 0-330.10725925 147.57736297-330.10725925 330.10725926 0 182.5298963 147.57736297 330.10725925 330.10725925 330.10725925 182.5298963 0 330.10725925-147.57736297 330.10725926-330.10725925 0-67.96325925-20.38897778-131.072-56.31241481-183.5008l182.5298963-182.5298963C918.80865185 67.48539258999995 918.80865185 30.591051849999985 895.50696297 7.2893629699999565zM439.18222222 670.4165925899999c-118.45025185 0-213.59881482-95.14856297-213.59881481-213.59881481s95.14856297-213.59881482 213.59881481-213.59881481c117.47934815 0 213.59881482 95.14856297 213.59881481 213.59881481S556.66157037 670.4165925899999 439.18222222 670.4165925899999z"  horiz-adv-x="1024" />

    
    <glyph glyph-name="weibiaoti31" unicode="&#58930;" d="M766.4 626.4 552 412l214.4-214.4c18.4-18.4 18.4-48.8 0-68-18.4-18.4-48.8-18.4-68 0L484 344 269.6 130.4c-18.4-18.4-48.8-18.4-68 0-18.4 18.4-18.4 48.8 0 68L416 412 201.6 626.4c-18.4 18.4-18.4 48.8 0 68 18.4 18.4 48.8 18.4 68 0L484 480l214.4 214.4c18.4 18.4 48.8 18.4 68 0C784.8 675.2 784.8 644.8 766.4 626.4z"  horiz-adv-x="1024" />

    
    <glyph glyph-name="jiantou-down" unicode="&#59050;" d="M41.3422834 620.1206876599999l944.52517007 0-472.26965494-472.24137532L41.3422834 620.1206876599999z"  horiz-adv-x="1024" />

    
    <glyph glyph-name="jiantouxiangshang" unicode="&#58904;" d="M960 384c0-247.039-200.961-448-448-448S64 136.961 64 384 264.961 832 512 832 960 631.039 960 384zM128 384c0-211.744 172.256-384 384-384s384 172.256 384 384S723.744 768 512 768 128 595.744 128 384zM501.152 540.832c-0.127-0.033-0.256-0.193-0.384-0.256-3.616-1.536-7.072-3.649-10.048-6.592-0.033-0.033-0.033-0.064-0.064-0.096-0.033-0.033-0.064-0.033-0.096-0.064L331.202 374.91200000000003c-12.513-12.48-12.576-32.735-0.064-45.248 12.48-12.513 32.735-12.544 45.248-0.064l136.672 136.288 135.904-137.408c12.447-12.576 32.672-12.673 45.248-0.256 6.336 6.239 9.504 14.496 9.504 22.751 0 8.128-3.103 16.256-9.248 22.497L535.971 533.7280000000001C526.592 543.232 512.767 545.601 501.152 540.832z"  horiz-adv-x="1024" />

    
    <glyph glyph-name="jiantouxiangxia" unicode="&#58905;" d="M512-64C264.961-64 64 136.961 64 384S264.961 832 512 832s448-200.961 448-448S759.039-64 512-64zM512 0c211.744 0 384 172.256 384 384S723.744 768 512 768 128 595.744 128 384 300.256 0 512 0zM535.971 234.27200000000005l158.496 160.255c6.145 6.241 9.248 14.369 9.248 22.497 0 8.255-3.169 16.512-9.504 22.751-12.576 12.416-32.801 12.32-45.248-0.256L513.058 302.11199999999997 376.386 438.4c-12.513 12.48-32.768 12.449-45.248-0.064-12.513-12.513-12.449-32.768 0.064-45.248l159.359-158.912c0.033-0.031 0.064-0.031 0.096-0.064 0.031-0.033 0.031-0.064 0.064-0.096 2.976-2.943 6.432-5.056 10.048-6.592 0.127-0.064 0.256-0.224 0.384-0.256C512.767 222.399 526.592 224.76800000000003 535.971 234.27200000000005z"  horiz-adv-x="1024" />

    
    <glyph glyph-name="menu" unicode="&#58880;" d="M62 744l105.35625 0 0-105.35625-105.35625 0 0 105.35625ZM263.9375 744l698.0625 0 0-105.35625-698.0625 0 0 105.35625ZM62 436.7625l105.35625 0 0-105.35625-105.35625 0 0 105.35625ZM263.9375 436.7625l698.0625 0 0-105.35625-698.0625 0 0 105.35625ZM62 129.35625000000005l105.35625 0 0-105.35625-105.35625 0 0 105.35625ZM263.9375 129.35625000000005l698.0625 0 0-105.35625-698.0625 0 0 105.35625Z"  horiz-adv-x="1024" />

    
    <glyph glyph-name="wenti" unicode="&#59406;" d="M921.088 542.5493333300001c-5.46133333 29.35466667-43.008 40.27733333-64.17066667 19.11466667l-179.54133333-178.85866667c-25.25866667-25.25866667-66.90133333-25.25866667-92.84266667 0L492.37333333 474.96533333C466.432 500.90666666 466.432 541.86666666 492.37333333 567.12533333l180.90666667 180.224c21.16266667 21.16266667 10.92266667 58.70933333-18.432 64.17066667-105.81333333 20.48-219.136-10.24-301.056-92.16C262.99733333 629.93066666 235.008 500.90666666 269.824 386.21866666c5.46133333-18.432 2.048-38.912-11.60533334-52.56533333L75.94666666 152.06399999999996c-25.25866667-25.25866667-25.25866667-66.90133333 0-92.16l92.84266667-92.16c25.25866667-25.25866667 66.90133333-25.25866667 92.84266667 0l183.63733333 182.95466666c13.65333333 13.65333333 33.45066667 17.74933333 52.56533333 12.288 114.00533333-33.45066667 241.664-5.46133333 331.776 84.65066667C909.48266666 327.50933333 940.20266666 438.784 921.088 542.5493333300001z"  horiz-adv-x="1024" />

    
    <glyph glyph-name="tupian" unicode="&#58944;" d="M828.40625 805.875L195.59375 805.875C137.5859375 805.875 90.125 758.4140625 90.125 700.40625L90.125 67.59375C90.125 9.5859375 137.5859375-37.875 195.59375-37.875L828.40625-37.875C886.4140625-37.875 933.875 9.5859375 933.875 67.59375L933.875 700.40625C933.875 758.4140625 886.4140625 805.875 828.40625 805.875L828.40625 805.875ZM301.0625 700.40625C359.0703125 700.40625 406.53125 652.9453125 406.53125 594.9375 406.53125 536.9296875 359.0703125 489.46875 301.0625 489.46875 243.0546875 489.46875 195.59375 536.9296875 195.59375 594.9375 195.59375 652.9453125 243.0546875 700.40625 301.0625 700.40625L301.0625 700.40625ZM142.859375 14.859375L142.859375 115.0546875 237.78125 241.6171875C274.6953125 289.078125 332.703125 289.078125 369.6171875 246.890625L554.1875 20.1328125 142.859375 20.1328125 142.859375 14.859375ZM881.140625 14.859375L617.46875 14.859375 512 151.96875 686.0234375 373.453125C722.9375 420.9140625 780.9453125 420.9140625 817.859375 373.453125L886.4140625 283.8046875 886.4140625 14.859375 881.140625 14.859375Z"  horiz-adv-x="1024" />

    
    <glyph glyph-name="guidang2" unicode="&#58914;" d="M568.25 609L455.75 609l0-225L287 384l225-225 225 225L568.25 384 568.25 609zM849.50000001 834L174.49999999 834C112.34374999 834 62 783.65625001 62 721.50000001l0-675c0-62.15625001 50.34375001-112.50000001 112.50000001-112.50000001l675 0c62.15625001 0 112.50000001 50.34375001 112.49999999 112.50000001L962 721.50000001C962 783.65625001 911.65625001 834 849.50000001 834zM849.50000001 271.49999999c0-31.05-25.2-56.25-56.25000001-56.24999999l-56.25 0c-48.65625001 0-56.25-56.25-56.25-56.25l0-56.25c0-31.05-25.2-56.25-56.25000001-56.25000001L399.49999999 46.49999998999999c-31.05 0-56.25 25.2-56.24999999 56.25000001l0 56.25c0 0-0.3375 56.25-56.25 56.25L230.75 215.25c-31.05 0-56.25 25.2-56.25000001 56.25000001L174.49999999 665.25c0 31.05 25.2 56.25 56.25000001 56.25000001l562.5 0c31.05 0 56.25-25.2 56.25000001-56.25000001L849.50000001 271.49999999z"  horiz-adv-x="1024" />

    
    <glyph glyph-name="shouye1" unicode="&#59123;" d="M524.279674 790.875754l-460.487789-467.75224 141.827169 0L205.619054-59.256336l216.891795 0L422.51085 214.66636l214.72341 0L637.234259-59.256336l214.654848 0L851.889107 323.123514l132.880403 0L524.279674 790.875754zM906.95833 704.41866 684.463933 704.41866l0-1.153266 222.49542-226.046293L906.959354 704.41866z"  horiz-adv-x="1024" />

    
    <glyph glyph-name="shuaxin" unicode="&#58931;" d="M687.19931188 134.65031250000004c-53.2734375-37.809375-115.63125-56.765625-179.39718751-55.8984375-8.428125 0.0890625-16.809375 0.5390625-25.09406249 1.265625-3.3721875 0.3234375-6.740625 0.890625-10.1625 1.3078125-6.50625 0.8859375-13.0125 1.7765625-19.333125 3.01875-3.9328125 0.7546875-7.77375 1.7578125-11.6109375 2.6671875-6.226875 1.4765625-12.405 2.9765625-18.4940625 4.8046875-2.9015625 0.909375-5.75625 1.9640625-8.65968751 2.9484375-6.975 2.3625-13.951875 4.8140625-20.73937499 7.696875-1.5440625 0.6328125-3.0421875 1.3546875-4.5421875 2.0625-7.9565625 3.534375-15.7753125 7.228125-23.3625 11.4-0.3721875 0.1828125-0.654375 0.346875-1.029375 0.534375-25.6565625 14.259375-49.1109375 32.0671875-69.70968751 52.8796875-0.32625 0.3328125-0.65625 0.703125-0.9825 1.078125-6.414375 6.4828125-12.49875 13.29375-18.3046875 20.3671875-1.216875 1.51875-2.3878125 3.13125-3.6046875 4.6734375-41.9034375 53.071875-67.183125 120.2296875-67.183125 193.276875l71.0671875 0c1.828125 0 3.6046875 0.9815625 4.545 2.7140625 0.9346875 1.7128125 0.796875 3.7471875-0.2371875 5.26875l-119.428125 181.3846875c-0.9346875 1.40625-2.52 2.34375-4.321875 2.34375-1.7765625 0-3.3675-0.9375-4.303125-2.34375L32.87774938 396.7415625c-1.0078125-1.5440625-1.171875-3.5578125-0.23437501-5.2921875 0.9346875-1.7296875 2.7159375-2.7140625 4.5421875-2.7140625l71.0690625 0c0-85.8796875 26.44875-165.4921875 71.3596875-231.313125 0.5625-0.909375 0.9346875-1.89375 1.545-2.8078125 4.68-6.7453125 9.8296875-12.9421875 14.840625-19.3125 1.8253125-2.409375 3.6046875-4.884375 5.52375-7.25625 7.35-9.0328125 15.16875-17.5078125 23.175-25.81875 0.7940625-0.815625 1.4971875-1.6359375 2.2453125-2.3625 26.9690625-27.3375 57.4471875-50.371875 90.639375-68.765625 0.84375-0.5484375 1.6846875-1.059375 2.6203125-1.5515625 9.55125-5.1984375 19.3828125-9.9 29.355-14.34375 2.4796875-1.078125 4.8675-2.2734375 7.3940625-3.346875 8.521875-3.5625 17.2753125-6.6984375 26.0784375-9.6890625 4.1653125-1.434375 8.2875-2.8875 12.5015625-4.1953125 7.7221875-2.3203125 15.590625-4.2328125 23.4984375-6.159375 5.2921875-1.2421875 10.490625-2.5734375 15.87375-3.6046875 2.195625-0.4640625 4.303125-1.14375 6.5034375-1.4953125 7.4925-1.340625 14.983125-2.0859375 22.47375-3.01875 2.7140625-0.3046875 5.383125-0.76875 8.0503125-1.078125 13.4859375-1.33125 26.8734375-2.2265625 40.2628125-2.2265625 81.9815625 0 161.9409375 25.3828125 230.533125 74.04375 21.8625 15.54375 27.196875 46.0359375 11.8828125 68.2078125C739.26806188 144.83156250000002 709.06181187 150.19406249999997 687.19931188 134.65031250000004M914.64149937 388.7334375c-0.0421875 85.6265625-26.3109375 165.0703125-71.0203125 230.7534375-0.6609375 1.125-1.1203125 2.270625-1.828125 3.3-5.5734375 8.0296875-11.615625 15.5203125-17.6484375 23.034375-0.703125 0.9140625-1.359375 1.8721875-2.1046875 2.7609375-40.921875 50.2546875-92.2828125 89.0878125-150.5203125 114.4640625-1.59375 0.703125-3.1875 1.4971875-4.78125 2.2003125-9.3140625 3.8596875-18.8109375 7.276875-28.3640625 10.5328125-3.4640625 1.1465625-6.8859375 2.41125-10.396875 3.4640625-8.3296875 2.551875-16.8 4.633125-25.3265625 6.6234375-4.725 1.1015625-9.4125 2.3175-14.1796875 3.255-2.3953125 0.46875-4.5890625 1.1690625-6.9328125 1.5890625-6.365625 1.126875-12.7828125 1.62-19.1484375 2.4375-4.40625 0.5596875-8.7609375 1.2628125-13.209375 1.7315625-10.715625 1.005-21.346875 1.426875-31.9734375 1.614375-1.9171875 0-3.8390625 0.3046875-5.758125 0.3046875-0.32625 0-0.65625-0.09375-1.0265625-0.1171875-81.83625-0.0703125-161.6596875-25.0921875-230.1553125-73.6875-21.909375-15.4940625-27.245625-46.040625-11.934375-68.2078125 15.3065625-22.1671875 45.5503125-27.553125 67.415625-12.009375 52.903125 37.5234375 114.6534375 56.5078125 177.94875 55.9425 9.13125-0.0675 18.075-0.51375 26.9203125-1.3546875 2.765625-0.32625 5.4328125-0.7265625 8.146875-1.078125 7.3078125-0.890625 14.5171875-1.9425 21.628125-3.3703125 3.140625-0.6065625 6.271875-1.4296875 9.3140625-2.13 6.9796875-1.5890625 13.9640625-3.3 20.7984375-5.383125 2.146875-0.7003125 4.25625-1.47375 6.403125-2.1984375 7.81875-2.578125 15.4546875-5.3596875 22.9875-8.521875 0.759375-0.32625 1.5515625-0.72375 2.296875-1.0284375 45.084375-19.640625 84.646875-49.8815625 115.5046875-87.684375 0.178125-0.2371875 0.3703125-0.5390625 0.553125-0.75 43.4484375-53.533125 69.61875-121.9753125 69.61875-196.4803125l-71.071875 0c-1.81875 0-3.6046875-0.9825-4.5375-2.7140625-0.9375-1.7296875-0.8015625-3.7471875 0.2390625-5.2921875l119.465625-181.363125c0.9-1.4015625 2.49375-2.3109375 4.3125-2.3109375 1.7765625 0 3.3703125 0.909375 4.3078125 2.3109375l119.3859375 181.363125c1.0265625 1.545 1.1671875 3.5625 0.234375 5.2921875-0.9421875 1.7315625-2.7140625 2.7140625-4.546875 2.7140625l-71.015625 0L914.64243688 388.7334375z"  horiz-adv-x="1025" />

    
    <glyph glyph-name="dangan" unicode="&#58982;" d="M777.70478516 575.4046875L253.63583984 575.4046875c-10.33154297 0-18.69609375-8.64404297-18.69609375-19.25683594 0-10.61279297 8.36455078-19.20410156 18.69609375-19.20410156l524.06806641 0c10.3359375 0 18.69433594 8.64580078 18.69433594 19.20410156C796.39912109 566.70351562 788.04072266 575.4046875 777.70478516 575.4046875L777.70478516 575.4046875zM796.39912109 672.82001953L234.93974609 672.82001953c-10.38603516 0-18.75585938-8.59130859-18.75585937-19.20146484 0-10.61279297 8.36894531-19.14257813 18.75585937-19.14257813l561.459375 0c10.39306641 0 18.76025391 8.52978516 18.76025391 19.19970703C815.159375 664.22871094 806.7921875 672.82001953 796.39912109 672.82001953L796.39912109 672.82001953zM954.95732422 438.9984375l-73.828125 309.45146484c-0.16699219 0.67236328-0.33398438 1.23046875-0.61083984 1.90898438-11.62792969 30.37236328-28.58642578 50.58544922-73.67431641 50.58544922l-583.58583985-1.62597656c-37.39042969 0-59.34375-15.10136719-73.48974609-50.30419922-0.28125-0.79277344-0.56513672-1.57763672-0.73212891-2.30273438L75.81816406 431.41787109c-5.66630859-5.55908203-9.31816406-12.57451172-9.31816406-20.71582031l0-408.10166016c0-21.11572266 24.64892578-41.54589844 45.19951172-41.54589843l823.55273437 0c20.54882813 0 29.59716797 20.43017578 29.59716797 41.54589843L964.84941406 410.70205078C964.84941406 422.99794922 961.64580078 432.87949219 954.95732422 438.9984375L954.95732422 438.9984375zM740.26337891 127.22050780999996L291.08427734 127.22050780999996l0 141.59179688 449.17910157 0L740.26337891 127.22050780999996 740.26337891 127.22050780999996zM684.11445313 412.13730469c0 0-39.70019531-0.50800781-59.29541016-0.50800782L415.89951172 411.62929688c-19.59521484 0-68.66630859 0.50800781-68.6663086 0.50800781L105.90576172 412.13730469l78.95214844 323.39707031c7.63769531 18.69873047 14.87988281 25.32304687 38.4609375 25.32304687l583.64033203 1.68310547c25.9453125 0 31.16601563-6.62255859 38.40820312-25.26855468l80.07714844-325.13554688L684.11445313 412.13642578 684.11445313 412.13730469z"  horiz-adv-x="1028" />

    
    <glyph glyph-name="anjian" unicode="&#58922;" d="M955.43372459 498.75071432c0-59.1138992-47.18530833-88.71369477-88.71245202-88.71369479L630.15266137 410.03701953c-54.29278583 0-88.77206429 41.12228048-88.77206429 95.87581718l0.05836951 229.40772913c0 54.66660196 34.42215049 88.71369477 88.71493632 88.71369478l236.56985153 0c54.34867227-0.05712797 88.71245202-34.04709159 88.71245201-88.71369478L955.43620767 498.75071432zM334.43910512 350.89455755999995L157.01171678 350.89455755999995c-54.29154429 0-88.71493632-41.12228048-88.71493632-95.7876409l0-229.49466385c0-54.66784473 34.42339203-88.71493632 88.71493632-88.71493632l236.56985153 0c41.64140085 0 88.71369477 34.07565558 88.71369477 88.71493632L482.29526308 262.18210433c0 54.72248839-34.42339203 88.71245202-88.71369477 88.71245203L334.43910512 350.89455755999995zM637.28373669 350.92312155c-54.69516595 0-95.84601042-34.42215049-95.84601043-88.74225876l0-236.56985152c0-61.59896971 36.61661374-88.71493632 95.76031847-88.71493632l229.52322784 0c54.69516595 0 88.71245202 34.3935865 88.71245202 88.71493632L955.43372459 262.18210433c0.05836951 54.37723626-34.01728607 88.71245202-88.71245202 88.71245203L637.28373669 350.92312155zM157.01171678 824.0342606199999c-54.69516595 0-88.71493632-34.3935865-88.71493632-88.71369478L68.29678046 498.75071432c0-54.55110448 34.07565558-88.71369477 88.71493632-88.71369479l236.56985153 0c54.69516595 0 88.71369477 34.3935865 88.71369477 88.71369479L482.29526308 735.32056584c0.05836951 54.23317356-34.01852761 88.71369477-88.71369477 88.71369478L157.01171678 824.0342606199999z"  horiz-adv-x="1024" />

    
    <glyph glyph-name="fanhui1" unicode="&#58900;" d="M622.650611 611.098251 447.745069 611.098251 447.745069 753.176131 63.980685 561.294962l383.76336-191.882192L447.744046 511.165238l189.391465 0c149.914358 0 224.855164-62.789045 224.855164-188.368158 0-129.928165-77.435627-194.876386-232.338602-194.876386L187.952184 127.920694l0-99.93199L634.146433 27.988704c211.184817 0 316.777737 95.104031 316.777737 285.311071C950.924169 511.821177 841.510224 611.098251 622.650611 611.098251z"  horiz-adv-x="1024" />

    
    <glyph glyph-name="tianjia" unicode="&#59048;" d="M514.1465 820.6845c-241.9785 0-438.8445-196.8525-438.8445-438.8355 0-242.001 196.866-438.849 438.8445-438.849 241.992 0 438.894 196.848 438.894 438.849C953.0405 623.832 756.1385 820.6845 514.1465 820.6845zM754.7435 328.22249999999997l-186.9885 0 0-187.038L460.529 141.18449999999996l0 187.0335-187.02 0L273.509 435.462l187.0155 0L460.5245 622.4549999999999l107.226 0 0-186.993 186.9975 0L754.748 328.22249999999997z"  horiz-adv-x="1024" />

    
    <glyph glyph-name="shezhi" unicode="&#58906;" d="M-48.606208 12.183552M1041.337344 12.183552M45.560832 43.327488M403.534848 385.104896c0 36.704256 12.394496 67.21024 37.6576 92.474368 25.264128 25.264128 55.771136 37.658624 92.475392 37.658624 36.703232 0 67.211264-12.394496 92.475392-37.658624 25.265152-25.264128 37.6576-55.770112 37.6576-92.474368 0-36.70528-12.393472-67.689472-37.6576-92.952576-25.264128-25.263104-55.77216-37.656576-92.475392-37.656576-36.704256 0-67.331072 12.274688-92.475392 37.656576C415.809536 317.773824 403.534848 348.8768 403.534848 385.104896zM219.547648 300.256256c7.626752-27.169792 19.067904-53.865472 32.89088-78.651392l-85.801984-105.347072 97.241088-97.241088 105.335808 85.801984c24.787968-13.824 51.958784-25.264128 79.128576-33.368064l14.30016-134.421504 140.142592 0 14.30016 134.421504c27.170816 8.103936 52.912128 19.544064 79.127552 33.368064l104.869888-85.801984 98.195456 97.241088-86.278144 105.347072c13.346816 24.78592 25.263104 51.480576 33.364992 78.651392l134.424576 14.777344L980.789248 455.176192l-134.424576 14.30016c-8.101888 27.170816-20.018176 52.434944-33.364992 78.651392l86.278144 105.346048-98.195456 98.195456-104.869888-86.278144c-26.692608 13.34784-51.956736 25.264128-79.127552 33.36704L602.785792 833.181696 462.6432 833.181696l-14.30016-134.423552c-28.12416-8.102912-54.340608-20.020224-79.128576-33.36704l-105.335808 86.278144-97.241088-98.195456 85.801984-105.346048c-13.34784-26.217472-24.787968-51.480576-32.89088-78.651392L84.647936 455.176192l0-140.142592L219.547648 300.256256zM1021.78304 43.327488"  horiz-adv-x="1064" />

    
    <glyph glyph-name="edit" unicode="&#58910;" d="M649.48424143 774.62500076L215.29748203 774.62500076C145.97142658 774.62500076 90.125 718.58336142 90.125 649.45249484L90.125 87.29750592000005C90.125 17.971414210000034 146.16663357-37.875 215.29748203-37.875L777.45248908-37.875C846.77860468-37.875 902.6249711 18.16664017000005 902.6249711 87.29750592000005L902.6249711 515.11334966 840.12497344 452.61335202 840.12497344 87.29750592000005C840.12497344 52.601867330000005 812.17828595 24.624997649999955 777.45248908 24.624997649999955L215.29748203 24.624997649999955C180.6018797 24.624997649999955 152.62499765 52.57172717000003 152.62499765 87.29750592000005L152.62499765 649.45249484C152.62499765 684.14813342 180.5717453 712.1249973500001 215.29748203 712.1249973500001L586.98424295 712.1249973500001 649.48424143 774.62500076ZM354.35676327 230.03627874999995L543.9503414 283.86397906 408.52810468 418.45813531 354.35676327 230.03627874999995ZM860.7361586 598.71738547L725.31223438 733.31329514 427.37597345 437.21069577 562.79821018 302.62790048 860.7361586 598.71738547ZM923.67695547 711.77836688L839.0333414 795.895565C825.00961408 809.83538205 801.51690155 809.07639267 786.55751563 794.21408002L745.92378125 753.84352312 881.34860938 619.24849265 921.97975235 659.6312839C936.93913828 674.4944765600001 937.6980914 697.83680218 923.67695547 711.77836688Z"  horiz-adv-x="1024" />

    
    <glyph glyph-name="zhongzhi" unicode="&#58916;" d="M823.929312 337.926662c-13.003152 0-23.901363-9.724479-25.498744-22.62837C780.597411 171.267944 659.20669 59.832969 512.105401 59.832969c-159.388127 0-288.603047 130.812301-288.603047 292.174386 0 146.338926 106.272395 267.535219 244.940618 288.842501 15.594163 2.39556 29.676903-9.609869 29.676903-25.38618l0-67.043952c0-19.558451 20.985964-31.943526 38.107923-22.488177l226.578412 125.120672c17.016559 9.397021 17.835204 33.556257 1.494027 44.084031L537.721825 841.107809c-17.095353 11.013845-39.602973-1.25969-39.602973-21.595854l0-68.116377c0-13.175067-9.967002-24.228821-23.076578-25.547863-187.496302-18.86158-333.915046-179.02128-333.915046-373.786125 0-207.474308 166.124552-375.656729 371.046734-375.656729 190.667527 0 347.734796 145.576563 368.68392 332.927555 1.704828 15.242146-10.196223 28.594245-25.533536 28.594245L823.929312 337.926662z"  horiz-adv-x="1024" />

    
    <glyph glyph-name="shenhe1" unicode="&#59049;" d="M898.715152 8.791919l-94.90101 94.90101c21.462626 32.452525 34.262626 71.369697 34.262626 113.260606 0 113.519192-92.056566 205.575758-205.575758 205.575758-113.519192 0-205.575758-92.056566-205.575758-205.575758 0-113.519192 92.056566-205.575758 205.575758-205.575758 41.890909 0 80.808081 12.670707 113.260606 34.262626l94.90101-94.90101c11.765657-11.765657 31.159596-11.765657 42.925253 0l15.127273 15.127273C910.610101-22.238384 910.610101-2.973737 898.715152 8.791919L898.715152 8.791919 898.715152 8.791919zM743.434343 164.20202c-12.153535-25.470707-32.711111-46.028283-58.181818-58.181818-16.032323-7.628283-33.874747-12.282828-52.880808-12.282828-68.137374 0-123.345455 55.208081-123.345455 123.345455 0 68.137374 55.208081 123.345455 123.345455 123.345455 68.137374 0 123.345455-55.208081 123.345455-123.345455C755.717172 198.076768 751.062626 180.234343 743.434343 164.20202L743.434343 164.20202 743.434343 164.20202zM364.088889 178.553535l-100.589899 0c-17.19596 0-31.288889 14.092929-31.288889 31.288889 0 17.19596 14.092929 31.288889 31.288889 31.288889l98.909091 0c2.585859 29.478788 9.955556 57.535354 21.20404 83.523232l-120.113131 0c-17.19596 0-31.288889 14.092929-31.288889 31.288889 0 17.19596 14.092929 31.288889 31.288889 31.288889l158.383838 0c30.642424 37.624242 71.240404 66.844444 117.785859 83.523232L263.49899 470.755556c-17.19596 0-31.288889 14.092929-31.288889 31.288889 0 17.19596 14.092929 31.288889 31.288889 31.288889l482.391919 0c17.19596 0 31.288889-14.092929 31.288889-31.288889 0-17.19596-14.092929-31.288889-31.288889-31.288889l-23.660606 0c84.428283-30.383838 149.333333-101.753535 170.79596-190.060606L893.026263 731.151515c0 52.234343-42.666667 94.90101-94.90101 94.90101L211.264646 826.052525C159.030303 826.181818 116.363636 783.385859 116.363636 731.151515l0-678.012121c0-52.234343 42.666667-94.90101 94.90101-94.90101l344.177778 0C455.369697-12.541414 379.216162 73.179798 364.088889 178.553535L364.088889 178.553535 364.088889 178.553535zM263.49899 679.951515l482.391919 0c17.19596 0 31.288889-14.092929 31.288889-31.288889 0-17.19596-14.092929-31.288889-31.288889-31.288889L263.49899 617.373737c-17.19596 0-31.288889 14.092929-31.288889 31.288889C232.210101 665.858586 246.30303 679.951515 263.49899 679.951515L263.49899 679.951515 263.49899 679.951515z"  horiz-adv-x="1024" />

    
    <glyph glyph-name="create-orders" unicode="&#59104;" d="M829.354 181.493h-25.986v137.177h-82.273v-137.177h-137.095v-82.272h137.095v-137.095h82.273v137.095h137.177v82.272zM529.096 211.389v25.008h137.095v137.257h163.080v350.762c0 44.964-36.494 81.458-81.458 81.458h-540.234c-44.965 0-81.458-36.494-81.458-81.458v-680.832c0-44.964 36.494-81.458 81.458-81.458h458.613v82.272h-137.095v166.99zM262.89 575.183c0 18.736 15.314 34.050 34.050 34.050h386.848c18.736 0 34.050-15.314 34.050-34.050v-9.287c0-18.736-15.314-34.050-34.050-34.050h-386.848c-18.736 0-34.050 15.314-34.050 34.050v9.287zM262.89 398.011v9.287c0 18.736 15.314 34.050 34.050 34.050h291.215c18.736 0 34.050-15.314 34.050-34.050v-9.287c0-18.736-15.314-34.050-34.050-34.050h-291.215c-18.736 0-34.050 15.314-34.050 34.050z"  horiz-adv-x="1024" />

    
    <glyph glyph-name="liucheng" unicode="&#58894;" d="M94.4 420c-4.8-4.8-9.6-12-9.6-21.6 0-7.2 2.4-14.4 9.6-21.6l148.8-153.6c4.8-2.4 12-7.2 21.6-7.2 7.2 0 16.8 2.4 21.6 9.6l156 153.6c4.8 4.8 9.6 12 9.6 21.6s-2.4 16.8-9.6 21.6l-156 151.2c-4.8 4.8-12 9.6-21.6 9.6-7.2 0-14.4-2.4-21.6-9.6l-148.8-153.6zM939.2 787.2c0 7.2-2.4 14.4-9.6 21.6-4.8 4.8-14.4 9.6-21.6 9.6h-237.6c-7.2 0-14.4-2.4-21.6-9.6-4.8-4.8-9.6-14.4-9.6-21.6v-60h-134.4c-7.2 0-14.4-2.4-21.6-9.6-4.8-4.8-9.6-14.4-9.6-21.6v-600c0-7.2 2.4-14.4 9.6-21.6 4.8-4.8 14.4-9.6 21.6-9.6h134.4V-24c0-7.2 2.4-14.4 9.6-21.6 4.8-4.8 14.4-9.6 21.6-9.6h237.6c7.2 0 14.4 2.4 21.6 9.6 4.8 4.8 9.6 14.4 9.6 21.6v194.4c0 7.2-2.4 14.4-9.6 21.6-4.8 4.8-14.4 9.6-21.6 9.6h-237.6c-7.2 0-14.4-2.4-21.6-9.6-4.8-4.8-9.6-14.4-9.6-21.6v-14.4h-60c-7.2 0-14.4 2.4-21.6 9.6-4.8 4.8-9.6 14.4-9.6 21.6V624c0 7.2 2.4 14.4 9.6 21.6 4.8 4.8 14.4 9.6 21.6 9.6h60v-60c0-7.2 2.4-14.4 9.6-21.6 4.8-4.8 14.4-9.6 21.6-9.6h237.6c7.2 0 14.4 2.4 21.6 9.6 4.8 4.8 9.6 14.4 9.6 21.6v192z"  horiz-adv-x="1024" />

    
    <glyph glyph-name="shenhe" unicode="&#58893;" d="M172.25 37.5h693c22.5 2.25 20.25-4.5 20.25 20.25V114c0 31.5-6.75 38.25-38.25 38.25h-135c-18 13.5-20.25 31.5-24.75 36-78.75 87.75-33.75 146.25 15.75 227.25 9 11.25 18 22.5 24.75 36 20.25 36 31.5 76.5 31.5 121.5C759.5 712.5 647 827.25 505.25 827.25c-139.5 0-254.25-112.5-254.25-254.25 0-58.5 20.25-112.5 54-155.25 54-85.5 141.75-155.25 0-265.5h-135c-24.75 0-38.25-13.5-38.25-38.25v-58.5c0-22.5 15.75-18 40.5-18z m751.5-38.25H93.5c-11.25 0-20.25-9-20.25-20.25v-20.25c0-11.25 9-20.25 20.25-20.25h828c11.25 0 20.25 9 20.25 20.25V-21c0 11.25-9 20.25-18 20.25z"  horiz-adv-x="1024" />

    
    <glyph glyph-name="tongji" unicode="&#58913;" d="M127.14033085 128.19647584999996h128.70403059c28.01311778 0 50.73347267 25.64635661 50.73347268 57.21790118V496.74427236c0 31.65439503-22.72035489 57.35046191-50.73347268 57.3504619h-128.70403059c-28.02554535 0-50.70585586-25.69606688-50.70585586-57.3504619v-311.32989533c0-31.57154458 16.01361103-56.76222371 46.48186377-56.76222371l4.22399209-0.45567747m322.90824563 0.02209344h128.7620259c28.02554535 0 50.67547737 24.26413494 50.67547737 54.12619859V712.81272098c0 29.9214398-22.64993202 54.20490651-50.67547737 54.20490652h-128.7620259c-27.97169255 0-50.75970865-24.28346672-50.75970866-54.20490652v-530.4679531c0-29.86206364 22.78801611-54.12619858 50.75970866-54.12619859m321.59644685-0.01242756h128.7385516c28.0310687 0 50.79561051 25.28871883 50.79561053 56.4266794V328.04004481000004c0 31.2304769-22.76454181 56.5454317-50.79561053 56.5454317h-128.7385516c-27.98273929 0-50.7610895-25.31495481-50.7610895-56.5454317v-143.40722368c0-31.13796057 22.77420769-56.42667939 50.7610895-56.4266794m136.58034664-42.69559824H120.25960103c-23.86369109 0-43.39292286-18.92580432-43.39292288-42.20539976 0-23.26026366 19.52923175-42.32415207 43.39292288-42.32415207h787.96576894c23.86369109 0 43.48129668 19.06388841 43.48129668 42.32415207 0 23.27959542-19.61760558 42.20539975-43.48129668 42.20539976m0 0z"  horiz-adv-x="1024" />

    
    <glyph glyph-name="xiafa" unicode="&#58886;" d="M512 834C264.5 834 62 631.5 62 384s202.5-450 450-450 450 202.5 450 450S759.5 834 512 834z m-56.25-243.74999971c0 11.25 11.25 22.5 22.5 22.5h86.24999971c11.25 0 22.5-11.25 22.5-22.5v-22.5c0-11.25-11.25-22.5-22.5-22.5h-86.24999971c-11.25 0-22.5 11.25-22.5 22.5v22.5z m247.5-225v-7.50000058l-187.49999971-198.74999971c-3.75000029-3.75000029-7.49999971-3.75000029-7.50000058 0h-3.74999942l-176.25000058 198.74999971v3.75000029 3.75000029 3.74999942c0 3.75000029 3.75000029 7.49999971 7.50000058 7.50000058h119.99999971V503.99999971c0 11.25 11.25 22.5 22.5 22.5h86.24999971c11.25 0 22.5-11.25 22.5-22.5v-127.49999942h116.25000029c-3.75000029 0 0-3.75000029 0-11.25z"  horiz-adv-x="1024" />

    
    <glyph glyph-name="send" unicode="&#58915;" d="M90.125 373.453125l232.03125-137.109375 479.8828125 437.6953125L406.53125 225.796875l316.40625-105.46875 210.9375 685.546875zM406.53125-6.234375L512 120.328125l-105.46875 52.734375z"  horiz-adv-x="1024" />

    
    <glyph glyph-name="gerenxinxi" unicode="&#58934;" d="M246.86201357 572.7262435499999c30.27977051 0 54.80883984 30.12147773 54.80883985 67.25819884V715.5206294c0 37.14751406-24.52906933 67.24470849-54.80883985 67.24470761-30.25368809 0-54.79984599-30.11068477-54.79984599-67.24470761v-75.54518086c0-37.13402286 24.54615791-67.24920498 54.79984599-67.24920498z m712.49692676 72.19854932c-2.48591426 61.55246777-59.46678193 57.49531787-59.46678105 57.49531788h-32.71172168v-106.8700421s-0.75908496-46.88521172-46.29251338-46.99943437l-8.58108252-0.00449649c-14.75359717 0.01349122-41.19836748 0.05486308-70.52838134-0.01798769-5.42062441 0.01528945-11.83417646 0.02788066-18.25312413 0.02788066-40.73428213 1.50647872-38.59283408 45.77896143-38.59283408 45.77896231V702.42190987H339.07469346v-108.08601768s2.1639331-44.27338271-44.19873369-45.7834588l-12.63823066-0.02338417a16680.03693487 16680.03693487 0 0 1-70.52748224 0.01798769l-8.585579 0.00449736c-45.55141612 0.1160209-46.29790987 46.99943437-46.29791074 46.99943438V702.42011074H124.12852666s-57.00335185 4.05804902-59.45329072-57.49351875c-0.36875039-2.50210372-0.45689062-3.97890263-0.45688975-3.97890264l0.10972529-594.04813505c0-61.10277276 61.96798565-61.66489131 61.96798565-61.66489131h771.42767256s61.971583 0.56211855 61.971583 61.66489131l0.08454288 594.04813505s-0.08454287 1.47679893-0.4308082 3.97890264l0.00989296-0.00179912zM513.21552558 110.46125887999995c0-46.67835234-89.48303086-57.29295498-173.47798125-57.29295497-83.89871631 0-174.52217373 10.60560967-174.5221746 57.29295497v12.85318565c0 34.24788018 61.8672542 68.96074482 114.57781611 88.02961612 3.82780459 1.39585342 22.00987705 11.27205791 11.82518262 37.95876386-26.09670674 26.62734638-45.82752891 69.80887002-45.82752891 112.26458496 0 65.08257363 43.06190362 99.16586543 93.43764932 99.16586543 50.34066943 0 93.69217705-34.07609619 93.69217705-99.16586543 0-42.3118125-19.84954219-85.2945706-45.82752891-112.00106338h0.14480156c-9.95984737-30.24199599 5.99623418-37.40653828 8.50283526-38.22228544 55.31789443-18.28730127 117.47565175-52.74563818 117.47565175-88.02961612v-12.85318565z m307.33872452 21.43966466H624.87302188c-23.19437461 0-41.99073047 18.78736201-42.00781816 41.98263573 0 23.17728604 18.82243828 41.9556542 42.01681201 41.95565333h195.668637c23.17998427 0 41.96914453-18.79635586 41.96914454-41.97364102 0-23.17818516-18.78916114-41.96464805-41.96914454-41.96464804h0.00359737z m0 166.17583213H624.88741221c-23.19617285 0-42.02220938 18.79185938-42.0222085 41.9556542 0 23.15929834 18.82243828 41.9736419 42.0222085 41.97364189H820.57223779c23.18537988 0 41.98353487-18.79275849 41.98713311-41.97364189-0.01259121-23.17818516-18.80085323-41.9556542-41.97813926-41.9556542h-0.02967979 0.00269825z m-43.14105 274.64948789c30.26088281 0 54.81333633 30.12147773 54.81333633 67.25819883V715.5206294c0 37.14751406-26.60576133 67.24470849-56.89902217 67.24470761-30.24019688 0-52.72315401-30.11068477-52.723154-67.24470761v-75.54518086c-0.00809472-37.13402286 24.53716406-67.24920498 54.80883984-67.24920498z"  horiz-adv-x="1024" />

    
    <glyph glyph-name="image" unicode="&#59125;" d="M984.615 699.077c0 43.323-35.446 78.769-78.769 78.769h-787.692c-43.323 0-78.769-35.446-78.769-78.769v-630.154c0-43.323 35.446-78.769 78.769-78.769h787.692c43.323 0 78.769 35.446 78.769 78.769v630.154zM779.815 147.692h-571.077c-23.631 0-37.415 25.6-25.6 45.292l173.292 301.292c7.877 13.785 25.6 13.785 33.477 0l104.369-179.2c7.877-11.815 25.6-13.785 33.477-1.969l84.677 122.092c7.877 11.815 25.6 11.815 33.477 0l155.569-248.123c11.815-17.723 0-39.385-21.662-39.385zM728.615 502.154c-43.323 0-78.769 35.446-78.769 78.769s35.446 78.769 78.769 78.769 78.769-35.446 78.769-78.769-35.446-78.769-78.769-78.769z"  horiz-adv-x="1024" />

    
    <glyph glyph-name="yonghuzaixian" unicode="&#58932;" d="M506.375 375.5625c-8.4375 5.625-16.875 5.625-28.125 5.625 2.8125 2.8125 2.8125 5.625 5.625 8.4375 118.125 33.75 188.4375 137.8125 168.75 253.125-16.875 90-70.3125 151.875-160.3125 174.375-90 25.3125-168.75 0-230.625-73.125-59.0625-73.125-67.5-151.875-28.125-236.25 30.9375-70.3125 90-106.875 163.125-123.75v-2.8125C219.5 369.9375 70.4375 215.25 62 35.25c0-19.6875 2.8125-25.3125 22.5-22.5h388.125c5.625 0 11.25-2.8125 16.875 2.8125-98.4375 118.125-81.5625 267.1875 16.875 360z m-84.375 8.4375zM711.6875 437.4375c-137.8125 0-250.3125-109.6875-250.3125-247.5s112.5-250.3125 247.5-253.125c140.625 0 253.125 109.6875 253.125 250.3125 0 137.8125-112.5 250.3125-250.3125 250.3125z m143.4375-213.75c-61.875-64.6875-126.5625-126.5625-188.4375-191.25-47.8125 47.8125-90 92.8125-135 135-5.625 5.625-8.4375 11.25 0 16.875l2.8125 2.8125c16.875 14.0625 30.9375 45 50.625 45 14.0625 0 30.9375-25.3125 45-42.1875 11.25-11.25 22.5-30.9375 36.5625-30.9375 11.25 0 25.3125 19.6875 36.5625 30.9375l129.375 129.375c8.4375 8.4375 14.0625 11.25 22.5 0 14.0625-16.875 42.1875-30.9375 42.1875-47.8125 0-16.875-28.125-33.75-42.1875-47.8125z"  horiz-adv-x="1024" />

    
    <glyph glyph-name="guidang" unicode="&#58887;" d="M821.98827002-64.41250283H271.8100294V692.06263565h240.69320771v-313.76254571l121.79281377 92.47728956 118.93134902-92.47728956V692.06263565h137.55269619v-687.71506201c0-37.93404815-30.82602832-68.76007646-68.79182607-68.76007647zM634.29605088 515.82103653l-87.38142275-68.76007647V726.4430707h171.93233671v-279.38290429l-84.55091396 68.76087011zM168.66872422 760.82350576v-34.37964141c0-18.99917138 15.38126367-34.38043506 34.38043505-34.38043505h34.41218555v-756.47593213H203.04915928c-37.99754824 0-68.76007646 30.82602832-68.76007559 68.76087012V760.82350576c0 37.99754824 30.76252823 68.76087011 68.76007558 68.76087012h618.93911075c25.38329239 0 47.27726543-13.90330372 59.22953438-34.38043505H203.04915928c-18.99837685 0-34.38043506-15.38205732-34.38043506-34.38043507z"  horiz-adv-x="1024" />

    
    <glyph glyph-name="xie" unicode="&#58888;" d="M513.875 382.125m-451.875 0a451.875 451.875 0 1 1 903.75 0 451.875 451.875 0 1 1-903.75 0ZM249.381875 409.310625V451.81875l30.1096875 126.93375h42.508125L292.480625 451.81875h133.4278125V610.6321875H243.4775v42.508125h309.3628125v-42.508125h-80.8828125v-158.814375h83.835v-42.508125h-83.835v-212.53875c0-51.5578125-24.4040625-77.3409375-73.2075-77.3409375-27.1584375 0-52.1521875 0.19875-74.979375 0.590625-1.9696875 13.7765625-5.1196875 30.1096875-9.44625 49.003125 24.796875-2.754375 49.395-4.1325 73.7990625-4.1325 25.1878125 0 37.785 13.1859375 37.785 39.555V367.9828125c-42.11625-81.87-101.353125-152.1271875-177.706875-210.7678125-7.0846875 10.6275-16.5309375 22.831875-28.33875 36.60375 80.293125 59.0409375 141.886875 130.869375 184.7915625 215.491875H249.381875z m550.8309375-109.2225c0-71.2425-32.8678125-106.8590625-98.5940625-106.8590625-22.0434375 0-40.7371875 0.193125-56.086875 0.5896875-1.9696875 20.465625-5.1196875 37.588125-9.4453125 51.36375 23.6146875-2.75625 46.640625-4.1325 69.0759375-4.1325 32.6653125 0 49.0021875 20.07375 49.0021875 60.219375 0 47.23125-28.1446875 93.871875-84.425625 139.921875 27.9421875 62.184375 51.954375 118.6678125 72.0271875 169.4409375H628.4103125v-498.286875h-44.8678125V653.1403124999999h205.453125v-48.4115625c-24.4040625-58.6471875-46.640625-110.0109375-66.7134375-154.09125 51.954375-46.4465625 77.930625-96.63 77.930625-150.549375z"  horiz-adv-x="1024" />

    
    <glyph glyph-name="tufashijianshangbao" unicode="&#58951;" d="M257.666333 408.301172c-11.258231-37.868594-8.187804-91.089321-8.187804-139.704408v-240.516747h524.019466v241.028485c0 48.103349 3.070427 101.324076-8.187804 139.19267-26.610364 89.554108-87.507157 152.497852-176.037789 179.619954-19.446035 6.140853-39.915545 7.164329-62.432007 10.746493-10.234755 0-20.46951-0.511738-30.704266-0.511738l-33.262954-3.070426c-33.262954-7.164329-61.408531-17.910822-86.483681-32.751217-57.314629-33.774692-98.25365-83.413255-118.723161-154.033066zM512 465.615802l203.671628-211.859433h-97.741912v-114.117521H406.070284v114.117521H308.328372L512 465.615802zM227.985543 665.705266c10.746493-13.81692 22.004724-33.262954 36.333381-44.009448 11.769968-8.699542 33.774692-11.258231 48.10335-2.558688 13.305182 8.187804 26.610364 29.68079 17.910821 51.173776-6.652591 15.352133-20.981248 27.633839-31.216003 39.915545-19.957773 24.051675-39.403808 48.615087-59.36158 72.666762-7.676066 6.140853-17.399084 9.723017-31.216004 9.723017-12.281706-5.117378-22.004724-5.629115-29.68079-14.840395-23.539937-30.192528 1.023476-52.708989 15.863871-72.155024l33.262954-39.915545zM498.694818 693.850843c5.117378-2.558689 13.305182-6.140853 22.516462-4.60564 15.352133 2.558689 26.610364 9.21128 33.262954 20.46951 9.21128 15.352133 5.117378 45.544661 5.117378 69.596335 0 56.802891 12.281706 117.699685-47.079874 116.67621-17.399084-7.164329-28.145577-9.723017-35.309906-26.610364-6.140853-15.352133-2.046951-41.962496-2.046951-61.920269 0-48.103349-9.21128-97.230174 23.539937-113.605782zM720.277268 607.878899c12.793444-7.676066 34.28643-5.117378 45.032923 2.046951 9.723017 6.652591 17.910822 18.422559 25.07515 27.122101l41.450759 46.056399c10.234755 12.793444 25.586888 23.028199 32.239479 38.892069 13.305182 33.262954-15.863871 56.802891-46.568136 56.291154-5.117378-2.046951-10.746493-4.093902-15.863871-6.140853-9.723017-6.140853-16.887346-16.375608-24.051675-25.07515-10.746493-11.769968-21.492986-24.051675-32.239478-35.821644l-40.427283-45.54466c-14.328657-21.492986-1.023476-48.103349 15.352132-57.826367zM710.554251-7.229889H197.793015c-6.140853-1.535213-11.769968-3.070427-17.910821-4.093902-11.769968-4.60564-22.516461-14.328657-28.657315-24.563412-22.004724-36.333381 2.046951-75.737188 31.727741-86.483682 13.81692-5.117378 35.821643-3.070427 54.244203-3.070426h475.404379c73.690237 0 142.774835-13.305182 153.521328 51.685514 2.558689 14.840395-2.558689 27.633839-7.676066 35.821643-25.586888 42.474234-82.389779 30.704266-147.892213 30.704265zM173.741341 412.906812c12.793444 3.070427 23.028199 10.746493 28.657314 20.469511 10.746493 17.910822 2.558689 40.939021-8.699542 51.685513-11.258231 10.746493-29.68079 10.746493-47.591611 14.840396l-70.619811 13.816919c-12.281706 2.558689-23.028199 6.140853-38.380332 6.140853-9.21128-4.093902-16.375608-5.117378-23.539937-10.746493-18.422559-14.840395-15.863871-49.638563 1.535213-62.943744 12.281706-9.723017 31.727741-10.234755 49.638563-14.328658l70.619811-13.816919c11.258231-3.070427 25.07515-8.187804 38.380332-5.117378zM976.657886 498.367018l-33.262954-4.60564-71.131549-11.25823c-12.281706-2.558689-25.07515-2.046951-34.798168-6.652591-17.399084-7.676066-30.704266-32.239479-20.46951-55.779416 5.117378-11.769968 16.887346-20.46951 31.216003-23.539937 12.281706-2.558689 26.098626 1.535213 36.845119 3.582164 24.051675 3.582164 47.591612 7.164329 71.643286 10.746493 24.051675 4.60564 45.032923 4.093902 57.31463 20.469511 22.004724 30.192528-2.046951 67.549384-37.356857 67.037646z"  horiz-adv-x="1024" />

    
    <glyph glyph-name="kaoheshezhi" unicode="&#58971;" d="M558.423821 138.965238c0 119.048373 96.511077 215.560474 215.394698 215.560474 28.251438 0 54.870702-5.717212 79.583546-15.48774V692.398906c0 54.16155-43.982724 98.145297-98.362238 98.145297h-101.028974c-4.735861 22.344914-23.570835 39.382962-47.140647 39.382962H338.236979c-23.515576 0-42.460044-17.037025-47.031153-39.382962h-101.356432c-54.16155 0-97.981568-43.982724-97.981568-98.145297v-656.205333c0-54.216809 43.820018-98.117668 97.981568-98.117668h507.816724c-81.378425 30.782074-139.242298 108.841917-139.242297 200.889333zM321.797565 555.087587H623.255385c13.71742 0 25.040303-11.184737 25.040303-24.848945 0-13.880125-11.32186-25.039279-25.040303-25.039279H321.797565c-13.606903 0-24.930809 11.159154-24.930809 25.039279 0 13.664208 11.322883 24.848944 24.930809 24.848945z m0-134.588302H623.255385c13.71742 0 25.040303-11.267625 25.040303-24.957414 0-13.908778-11.32186-25.01472-25.040303-25.01472H321.797565c-13.606903 0-24.930809 11.105942-24.930809 25.01472 0 13.68979 11.322883 24.957415 24.930809 24.957414z m0-184.696535c-13.606903 0-24.930809 11.270694-24.930809 25.012673 0 13.800307 11.322883 24.959461 24.930809 24.959462h224.108151c13.770632 0 24.984021-11.158131 24.984021-24.959462 0-13.743002-11.213389-25.012673-24.984021-25.012673H321.797565zM903.100978 99.991598c9.199523 3.319605 18.779715 5.552459 28.904306 8.381901v60.858066c-9.253758 2.285043-17.526165 4.327562-26.072818 6.721075-20.250206 5.17179-22.101367 11.785417-7.077186 26.89044 5.497201 5.308913 12.085246 9.445116 18.562775 14.560624a13567.870552 13567.870552 0 0 0-46.704719 62.654992c-5.335519-3.865028-9.79918-6.66991-14.044877-9.852392-31.898501-25.040303-33.585933-24.578792-47.250141 13.145392-1.849114 4.980431-6.966669 12.356422-10.940166 12.765744-18.071587 1.359974-36.360116 0.626263-53.889351 0.626264-3.482311-10.479679-5.714142-19.624966-9.526981-28.225855-6.967692-16.030092-16.22145-18.507516-30.045293-8.463766-8.981559 6.448876-17.801435 13.145391-27.436886 20.38426-8.001231-11.376095-15.242146-21.120017-22.753213-31.080879l-22.426779-30.373775c7.185656-8.221242 12.899798-14.916734 18.234293-21.828144 8.982582-10.887978 6.967692-18.018376-7.455809-20.957311-8.981559-1.934049-17.85567-4.627391-27.272133-6.967692v-60.803831c9.853415-2.721994 18.834974-4.953825 27.65178-8.028861 17.146519-6.124488 19.162432-14.178931 5.933129-26.320458-5.223978-5.279237-11.048637-10.124592-17.635659-15.622816a21561.006342 21561.006342 0 0 0 47.031153-61.075007c13.06455 7.67582 24.006763 14.425547 35.057447 20.956287 12.571317 7.158027 20.410865 2.478448 24.057929-10.56052 2.178619-8.762571 3.593851-18.124799 5.552459-26.780946h60.749596c0.762363 4.844332 1.143033 8.329712 1.633197 11.758811 0.598634 4.079922 1.088798 8.218172 1.852184 12.246929 2.992147 16.821107 14.043854 20.956288 26.998911 10.17985 6.967692-5.961782 13.664208-12.248975 18.181081-16.114003 21.392216 20.74037 41.314964 39.927361 61.620429 59.60554-5.442966 4.627391-11.486612 9.364275-17.311271 14.316053-12.358469 11.381212-10.616802 21.23258 5.822613 27.004028z m-129.009236-40.335661c-44.363394-0.109494-79.636758 34.973536-80.017428 79.063707-0.381693 44.337811 34.56626 80.047104 78.875418 80.427774 43.655266 0.436952 79.366605-34.919301 79.528288-79.091336 0.48914-44.883233-34.021861-80.020498-78.386278-80.400145z"  horiz-adv-x="1024" />

    
    <glyph glyph-name="dict" unicode="&#59069;" d="M488.107 633.173h-75.093v-307.2h75.093c54.613 0 92.16 13.653 119.467 37.547 23.893 23.893 37.547 64.853 37.547 116.053 0 54.613-13.653 92.16-37.547 116.053-23.893 27.307-64.853 37.547-119.467 37.547zM754.347 793.6h-484.693c-54.613 0-98.987-44.373-98.987-98.987v-624.64c0-54.613 44.373-98.987 98.987-98.987h484.693c37.547 0 71.68 34.133 85.333 68.267h-566.613c-20.48 0-37.547 17.067-37.547 37.547v34.133c0 20.48 20.48 37.547 40.96 37.547h443.733c75.093 0 133.12 61.44 133.12 136.533v413.013c0 51.2-44.373 95.573-98.987 95.573zM662.187 322.56c-37.547-37.547-88.747-58.027-160.427-58.027h-157.013v426.667h157.013c71.68 0 122.88-20.48 160.427-58.027 34.133-37.547 51.2-88.747 51.2-157.013 0-64.853-17.067-116.053-51.2-153.6z"  horiz-adv-x="1024" />

    
    <glyph glyph-name="shanchu" unicode="&#58890;" d="M910.016 682.688h-148.928V782.08a49.664 49.664 0 0 1-49.664 49.664H313.92h-0.064a49.664 49.664 0 0 1-49.664-49.664v-99.328H115.2a49.664 49.664 0 0 1 0-99.328h49.664V-12.8c0-27.52 22.272-49.664 49.664-49.664h596.032a50.752 50.752 0 0 1 19.328 3.904 49.792 49.792 0 0 1 30.336 45.824V583.232v0.128h49.664a49.6 49.6 0 0 1 0.128 99.328zM363.52 732.352h298.24v-49.664H363.52v49.664z m198.656-695.488H463.04V583.232v0.128h99.136V36.864zM363.712 583.36V36.864H264.256V583.232v0.128h99.456z m397.312-0.128v-546.368h-99.456V583.232l-0.064 0.128h99.52v-0.128z"  horiz-adv-x="1024" />

    
    <glyph glyph-name="biaoge" unicode="&#58899;" d="M64 800v-832h896v832H64z m608-208H896V448h-224V592z m-320-560H128v147.2h224v-147.2z m0 211.2H128V384h224v-140.8z m0 204.8H128V592h224V448z m256-416h-192v147.2h192v-147.2z m0 211.2h-192V384h192v-140.8z m0 204.8h-192V592h192V448z m288-416h-224v147.2H896v-147.2z m0 211.2h-224V384H896v-140.8z"  horiz-adv-x="1024" />

    
    <glyph glyph-name="wenben" unicode="&#58891;" d="M822.93191111 796.26998518H202.52444445c-56.6765037 0-103.40124445-50.85108148-103.40124445-107.64894815v-616.76657778c0-56.79786667 45.99656297-102.79442963 102.67306667-102.79442962h616.40248888c56.6765037 0 108.1344 46.60337778 108.1344 103.40124445V692.86874075c0 56.79786667-46.60337778 103.40124445-103.40124444 103.40124443zM719.53066667 227.56314075H305.92568889c-14.32082963 0-25.85031111 11.52948148-25.85031111 25.8503111s11.52948148 25.85031111 25.85031111 25.85031112H719.53066667c14.32082963 0 25.85031111-11.52948148 25.85031111-25.85031112s-11.52948148-25.85031111-25.85031111-25.8503111z m0 155.10186666H305.92568889c-14.32082963 0-25.85031111 11.52948148-25.85031111 25.85031111s11.52948148 25.85031111 25.85031111 25.85031111H719.53066667c14.32082963 0 25.85031111-11.52948148 25.85031111-25.85031111s-11.52948148-25.85031111-25.85031111-25.85031111z m0 155.10186667H305.92568889c-14.32082963 0-25.85031111 11.52948148-25.85031111 25.8503111s11.52948148 25.85031111 25.85031111 25.85031112H719.53066667c14.32082963 0 25.85031111-11.52948148 25.85031111-25.85031112s-11.52948148-25.85031111-25.85031111-25.8503111z"  horiz-adv-x="1024" />

    
    <glyph glyph-name="tongzhi" unicode="&#59584;" d="M512-64c49.6 0 88 38.4 88 88H424c0-49.6 38.4-88 88-88z m288.8 286.4V451.2c0 137.6-97.6 252.8-224.8 283.2v28.8c0 32-17.6 60.8-48 67.2-44 10.4-80-23.2-80-66.4v-30.4C320.8 704 223.2 588.8 223.2 451.2v-228.8L136 132.79999999999995v-44.8h752v44.8l-87.2 89.6z"  horiz-adv-x="1024" />

    
    <glyph glyph-name="pifu" unicode="&#59025;" d="M1020.75354075 422.83614815l-150.68425483-150.68425482L745.01688889 397.20429037V-4.361481479999952H271.99260445V396.42756741l-124.27567408-124.27567408L-2.19060148 422.83614815l274.18320593 274.18320593h83.10935703c-0.77672297-3.10689185-0.77672297-5.43706075-0.77672296-7.76722963 0-48.93354667 70.68178963-87.76969482 157.67476148-87.76969482s157.67476148 38.83614815 157.67476148 87.76969482c0 2.33016889 0 4.66033778-0.85439526 7.76722963H745.01688889v-0.77672297l0.77672296 0.77672297 274.9599289-274.18320593z"  horiz-adv-x="1024" />

    
    <glyph glyph-name="kehuqunzu" unicode="&#58995;" d="M571.49176437 388.20705844c55.52470594 22.00941188 94.95529406 76.13647031 94.95529407 139.3976475 0 82.71529406-67.29882375 150-150.01411688 150s-150-67.28470594-150-150c0-63.26117625 39.41647031-117.38823562 94.94117625-139.3976475-123.45882375-25.52470594-216.56470594-135.09176437-216.56470594-266.00470594 0-31.83529406 22.33411781-42.38117625 40.27764657-50.85176437l1.03058906-0.42352969c72.35294156-25.53882375 176.99294156-32.34352969 227.42117625-32.34352875 54.98823562 0 162.63529406 8.9223525 234.12705844 33.61411781 26.79529406 10.2776475 40.39058813 27.10588219 40.39058812 50.004705 0 130.92705844-93.10588219 240.49411781-216.56470594 266.00470594zM390.85647031 400.8423525c-35.53411781 33.13411781-57.8823525 80.21647031-57.8823525 132.635295 0 64.19294156 33.41647031 120.48 83.70352969 152.75294062v0.01411782c-0.31058812 0.4376475-0.7623525 0.69176437-1.115295 1.05882375-0.36705844 0.39529406-0.59294156 0.88941188-1.03058812 1.2423525a150.2823525 150.2823525 0 0 1-93.8823525 33.10588218c-82.71529406 0-150.01411781-67.28470594-150.01411782-150 0-63.26117625 39.43058812-117.38823562 94.95529407-139.39764656C142.1176475 406.72941188 49.02588219 297.1623525 49.02588219 166.24941188000003c0-22.91294156 13.59529406-39.72705844 40.74352968-50.14588219 40.20705844-13.89176438 90.09882375-21.89647031 125.74588219-26.24470594a302.25882375 302.25882375 0 0 0-2.25882375 36.31058813c0 122.28705844 72.9176475 227.4776475 177.6 274.67294062zM769.63294156 432.24c55.52470594 22.00941188 94.95529406 76.13647031 94.95529406 139.3976475 0 82.71529406-67.29882375 150-150.01411781 150-34.63058812 0-68.4423525-12.09882375-95.16705937-34.05176531l-3.98117625-3.26117625a181.31294156 181.31294156 0 0 0 80.56941187-150.84705844c0-52.41882375-22.34823563-99.50117625-57.8823525-132.635295 104.6823525-47.19529406 177.6-152.38588219 177.6-274.67294062 0-12.56470594-0.86117625-24.9176475-2.34352969-37.07294157l0.74823563 0.08470594c36.69176437 4.26352969 89.26588219 12.38117625 131.70352875 27.04941188 26.79529406 10.2776475 40.39058813 27.10588219 40.39058812 50.00470593 0 130.92705844-93.10588219 240.49411781-216.57882281 266.00470594z"  horiz-adv-x="1024" />

    
    <glyph glyph-name="arrow-left2" unicode="&#58933;" d="M474.147 542.69h486.596v-325.46H474.147v-183.778L65.584 383.94000000000005l408.564 350.485V542.69z m0 0"  horiz-adv-x="1024" />

    
    <glyph glyph-name="arrow-down" unicode="&#58895;" d="M512.16141275 246.88291082l-354.5740326 354.56796443c-14.89123555 14.90337185-39.06188325 14.90337185-53.95433245 0-14.90458548-14.89123555-14.90458548-39.06188325 0-53.95433243l381.550592-381.550592c14.89123555-14.90337185 39.06188325-14.90337185 53.95433245 0l381.54937837 381.550592c7.45168592 7.44683141 11.17874252 17.21290903 11.17874251 26.9765594s-3.72705659 19.529728-11.17874251 26.97655941c-14.89123555 14.90337185-39.06188325 14.90337185-53.95433244 0l-354.57281897-354.56796445z"  horiz-adv-x="1024" />

    
    <glyph glyph-name="help" unicode="&#59103;" d="M819.02933333 776.53333333H682.66666667V793.6a34.13333333 34.13333333 0 0 1-68.26666667 0v-17.06666667h-204.8V793.6a34.13333333 34.13333333 0 0 1-68.26666667 0v-17.06666667H204.4928C167.0144 776.53333333 136.53333333 744.51626667 136.53333333 705.16053333V605.86666667h750.93333334V705.16053333c0 39.35573333-30.68586667 71.3728-68.43733334 71.3728M648.53333333 401.06666667a34.13333333 34.13333333 0 0 0 0-68.26666667h-273.06666666a34.13333333 34.13333333 0 0 0 0 68.26666667h273.06666666z m-307.2-204.8a34.13333333 34.13333333 0 0 0 34.13333334 34.13333333h273.06666666a34.13333333 34.13333333 0 0 0 0-68.26666667h-273.06666666a34.13333333 34.13333333 0 0 0-34.13333334 34.13333334z m512 341.33333333H136.53333333v-508.928c0-39.3216 30.5152-71.33866667 67.9936-71.33866667h614.94613334c37.4784 0 67.9936 32.01706667 67.9936 71.33866667V537.6h-34.13333334z"  horiz-adv-x="1024" />

    
    <glyph glyph-name="order" unicode="&#59156;" d="M184.32 19.983928890000016V747.97966222L184.02872889 748.08888889 839.68 747.97966222 839.97127111 19.91111110999998 184.32 19.983928890000016zM839.97127111 820.90666667H184.02872889A72.81777778 72.81777778 0 0 1 111.50222222 747.97966222v-727.99573333A72.81777778 72.81777778 0 0 1 184.02872889-52.90666667000005h655.94254222A72.81777778 72.81777778 0 0 1 912.49777778 19.983928890000016V747.97966222A72.81777778 72.81777778 0 0 1 839.97127111 820.90666667zM657.63555555 493.22666667h-291.2711111a36.40888889 36.40888889 0 0 1 0-72.81777778h291.2711111a36.40888889 36.40888889 0 0 1 0 72.81777778M657.63555555 311.18222221999997h-291.2711111a36.40888889 36.40888889 0 0 1 0-72.81777777h291.2711111a36.40888889 36.40888889 0 0 1 0 72.81777777"  horiz-adv-x="1024" />

    
    <glyph glyph-name="notice" unicode="&#59183;" d="M797.09616355 650.6612811800001a36.89434075 36.89434075 0 0 1-51.10837096-11.3013191 38.13709748 38.13709748 0 0 1 10.79644919-52.15694697c1.32042903-0.89323141 12.62174815-8.81580563 27.06879525-24.66095408 29.4378003-32.31167525 72.23523555-97.98360178 72.23523556-207.96757333 0-114.2171117-44.07902815-180.82110578-72.23523556-211.7346797-12.34989511-13.59265185-21.70940682-20.35014163-22.79681895-21.12686459a38.05942518 38.05942518 0 0 1-10.33041541-52.38996386c7.14585125-10.87412148 18.9520403-16.777216 30.99124622-16.777216 0.69905067 0 1.43693748 0.27185303 2.13598814 0.31068919a36.97201303 36.97201303 0 0 1 18.44717038 6.01960296c5.24288 3.53408948 128.19812503 89.0512877 128.19812504 295.73726815 0 207.03550578-127.926272 292.51386785-133.4021689 296.04795733M681.28676978 539.7840782200001a36.7778323 36.7778323 0 0 1-49.05005511-17.74811971 38.29244208 38.29244208 0 0 1 16.97139674-50.37048415c2.33016889-1.24275675 58.09887763-30.60288475 58.09887762-114.33362014 0-89.40081303-52.11811082-119.03279408-53.82690133-120.00369778a38.02058903 38.02058903 0 0 1-16.6995437-50.68117333 37.20502992 37.20502992 0 0 1 49.98212267-16.9325606c3.84477867 2.0194797 94.91554608 49.82677808 94.91554608 187.61743171 0 132.97497125-96.31364741 180.47158045-100.39144297 182.452224M558.137344 789.57818311a53.20552297 53.20552297 0 0 1-12.34989511 3.49525333c-12.34989511 1.94180741-30.408704 0.31068918-49.74910578-17.32092208l-42.02071229-38.17593362-19.68992712-17.9034643-123.34360652-112.1199597H162.12514133a77.594624 77.594624 0 0 1-77.32277096-77.6722963v-249.40574341c0-42.79743525 34.71951645-77.6722963 77.32277096-77.67229629h103.92553245L434.3277037 49.82723318000001l61.71063941-56.07939793c15.61213155-14.13635792 30.36986785-18.09764503 41.98187614-18.09764503 2.91271111 0 5.28171615 0.50486992 7.76722964 0.93206756a53.98224592 53.98224592 0 0 1 12.46640356 3.26223644c9.47602015 4.194304 31.41844385 17.94230045 31.41844385 55.10849422V734.62503348c0 1.048576-0.31068918 1.94180741-0.34952533 2.95154726-0.89323141 24.1949203-12.23338667 43.57415822-31.18542697 52.00160237"  horiz-adv-x="1024" />

    
    <glyph glyph-name="warning_fill" unicode="&#59197;" d="M524.12416 197.33162667a36.40888889 36.40888889 0 1 0 0-72.81777778 36.40888889 36.40888889 0 0 0 0 72.81777778z m-36.40888889 291.27111111a36.40888889 36.40888889 0 1 0 72.81777778 0v-182.04444445a36.40888889 36.40888889 0 1 0-72.81777778 0v182.04444445z m476.19185778-413.67779556L574.04074667 752.96768c-11.50520889 20.02488889-29.70965333 31.53009778-49.91658667 31.53009778s-38.37496889-11.4688-49.91658667-31.53009778L84.3776 74.96135111000001c-11.50520889-20.02488889-12.30620445-41.54254222-2.18453333-58.9824 10.08526222-17.47626667 29.09070222-27.48871111 52.06471111-27.48871111h779.76917333c23.01041778 0 41.97944889 9.97603555 52.06471111 27.45230222 10.15808 17.47626667 9.35708445 38.99392-2.18453333 58.9824z"  horiz-adv-x="1024" />

    
    <glyph glyph-name="shanchu2" unicode="&#58940;" d="M250.6175 571.49999971v-526.12499971a36.41249971 36.41249971 0 0 1 36.37500029-36.37500029h451.125c20.09999971 0 36.37500029 16.3125 36.37499942 36.37500029V571.49999971h-523.87499971z m487.50000029-637.49999971h-451.125c-61.38749971 0-111.375 49.95-111.375 111.375V646.50000029h673.875v-601.12500029c0-61.425-49.95-111.375-111.375-111.375zM924.49999971 571.49999971H99.50000029c-20.62500029 0-37.50000029 16.875-37.50000029 37.50000029s16.875 37.50000029 37.50000029 37.50000029h824.99999942c20.62500029 0 37.50000029-16.875 37.50000029-37.50000029s-16.875-37.50000029-37.50000029-37.50000029M737 646.50000029H662.00000029V721.5c0 20.66249971-16.80000029 37.50000029-37.50000029 37.50000029H399.5c-20.66249971 0-37.50000029-16.83749971-37.50000029-37.50000029v-74.99999971H287V721.5c0 62.02500029 50.47499971 112.5 112.5 112.5h225c62.02500029 0 112.5-50.47499971 112.5-112.5v-74.99999971zM399.5 121.49999971c-20.62500029 0-37.50000029 16.875-37.50000029 37.50000029V421.50000029c0 20.62500029 16.875 37.50000029 37.50000029 37.49999942s37.50000029-16.875 37.50000029-37.49999942v-262.50000029c0-20.62500029-16.875-37.50000029-37.50000029-37.50000029M624.5 121.49999971c-20.62500029 0-37.50000029 16.875-37.50000029 37.50000029V421.50000029c0 20.62500029 16.875 37.50000029 37.50000029 37.49999942s37.50000029-16.875 37.50000029-37.49999942v-262.50000029c0-20.62500029-16.875-37.50000029-37.50000029-37.50000029"  horiz-adv-x="1024" />

    
    <glyph glyph-name="tongbu" unicode="&#58942;" d="M924.4925 234.015c20.62500029 0 37.50000029-16.875 37.50000029-37.50000029s-16.875-37.50000029-37.50000029-37.49999942H189.9125l161.51249971-161.02500029a37.5975 37.5975 0 0 0 0-53.02500029 37.5975 37.5975 0 0 0-53.02499942 0L72.95000029 169.73999971a37.2825 37.2825 0 0 0-10.9125 26.6625c0 0.03750029-0.03750029 0.07499971-0.03750029 0.1125 0 1.76249971 0.7875 3.30000029 1.0125 5.02500058 0.45 3.0375 0.675 6.14999971 1.83750029 9.03749942 5.625 13.68749971 19.0125 23.43750029 34.65 23.43750029h824.99249971z m26.55749971 364.25999971a37.37999971 37.37999971 0 0 0 10.9125-26.6625c0-0.03750029 0.03750029-0.07499971 0.03750029-0.1125 0-1.76249971-0.7875-3.30000029-1.05000029-5.02499971-0.41249971-3.07500029-0.63749971-6.14999971-1.83749942-9.03750029-5.58749971-13.68749971-18.97499971-23.42999971-34.61250058-23.42999971H99.5075c-20.62500029 0-37.50000029 16.875-37.50000029 37.50000029s16.875 37.50000029 37.50000029 37.49999942h734.55000029L672.57500029 770.02500029c-14.58749971 14.58-14.58749971 38.46750029 0 53.055 14.58 14.55000029 38.43 14.55000029 53.02499942 0L951.04999971 598.27499971z"  horiz-adv-x="1024" />

    
    <glyph glyph-name="wenjian" unicode="&#58970;" d="M510.05953232 580.95752578V834h-220.46815459a46.94955996 46.94955996 0 0 1-46.93761035-46.94955996v-734.36807109a46.93761035 46.93761035 0 0 1 46.93761035-46.93761036h525.63431865a46.93761035 46.93761035 0 0 1 46.96150958 46.93761036V502.67639414l-256.96190742 1.30249512c-97.8066044 0.01194961-95.16576622 76.97863653-95.16576622 76.97863652zM204.80972188 9.67614229000003l3.9194332 752.57909912A46.96150957 46.96150957 0 0 1 161.79154472 715.30568144v-734.34417187a46.96150957 46.96150957 0 0 1 46.93761036-46.96150957h525.65821787a47.03320635 47.03320635 0 0 1 44.55966182 32.12023886H239.39155567s-37.83209677-0.16729277-34.58183379 43.55590343zM632.64938574 543.90214658h229.53782022L549.14632578 834v-211.30289297s-13.00104932-78.79495958 83.50305996-78.79496045z"  horiz-adv-x="1024" />

    
    <glyph glyph-name="yonghu" unicode="&#58920;" d="M501.543633 356.529757a269.796271 269.796271 0 1 1-277.930546 269.682505 274.233148 274.233148 0 0 1 277.930546-269.682505z m-106.598822-49.374481C201.542466 307.155276 56.888889 177.917003 56.888889-9.740154v-20.193481C56.888889-128 211.781414-128 407.800379-128H616.049197c188.339754 0 350.968373 0 350.968373 98.066365v20.193481c0 187.714041-144.539811 316.89543-338.055922 316.89543H394.944811z"  horiz-adv-x="1024" />

    
    <glyph glyph-name="quanxian2" unicode="&#58897;" d="M605.523275 454.515a301.05 301.05 0 0 0 117.945 23.895c4.05 0 8.0775-0.18 12.1275-0.18 19.17 48.51 24.075 105.795 14.4225 161.505C727.698275 767.49 607.098275 852.9 480.378275 830.4c-126.5625-22.5-233.4375-120.915-210.9375-248.67 4.7475-27.585 18.1125-70.65 33.93-101.745L73.443275 148.38c-8.4375-12.1275-13.365-34.11-10.7325-49.05l10.0125-56.745c-9.495 54.6525 2.6325-19.6875 10.0125-19.5075l75.7575-1.0575c14.58 2.6325 32.8725 14.94 40.95 27.4275l90.8775 142.155 0.8775 0.8775 79.4475-6.3225 106.155 166.41c0.36 0 0.72-0.18 1.0575-0.18 9.495 13.005 19.8675 25.3125 31.455 36.9225a296.9325 296.9325 0 0 0 96.21 65.205zM123.190775 113.41499999999996l-11.25-4.7475 1.2375 12.3075 220.2525 319.6575 13.185-12.3075-223.425-314.91zM457.878275 701.5875c34.8075 50.085 103.3425 62.5725 152.91 27.225a111.825 111.825 0 0 0 27.0675-154.6425c-34.8075-50.085-70.3125-14.76-120.06 20.385-49.545 35.325-94.725 56.7675-59.9175 107.0325z m0 0M720.498275 416.895c-133.425 0-241.515-108.0675-241.515-241.47 0-133.38 108.09-241.425 241.515-241.425S962.013275 42.067499999999995 962.013275 175.42499999999995c0 133.4025-108.1125 241.47-241.515 241.47z m139.5675-340.56c0-36.045-69.075-44.3025-133.9425-44.3025s-134.82 8.2575-134.82 44.3025v9.99c0 26.55 47.8125 53.4375 88.425 68.0175 2.9925 1.0575 17.055 8.7975 9.135 29.34-20.205 20.565-35.325 53.955-35.325 86.805 0 50.265 33.2325 76.6125 72.2475 76.6125 38.8575 0 72.4275-26.3475 72.4275-76.6125 0-32.6925-15.3-65.9025-35.325-86.6475h0.18c-7.74-23.355 4.5675-28.98 6.5025-29.52 42.705-14.0625 90.6975-40.7925 90.6975-68.0175l-0.2025-9.9675z m0 0"  horiz-adv-x="1024" />

    
    <glyph glyph-name="tuichu" unicode="&#58961;" d="M955.733333 422.4l-162.986666-150.186667v97.28h-267.946667v105.813334h267.946667v97.28l162.986666-150.186667z m-278.186666 336.213333H186.026667l261.973333-110.933333v-525.653333h229.546667v211.626666h38.4v-247.466666h-267.946667V-59.733333L102.4 86.2208V793.6h613.546667v-283.306667H677.546667V758.613333z"  horiz-adv-x="1024" />

    
    <glyph glyph-name="yonghu2" unicode="&#59409;" d="M598.53846114-66h-173.07692227C259.30769258-66 131.23076943-66 131.23076943 20.53846113999998V37.84615370999995c0 166.15384628 131.53846114 297.69230742 294.23076943 297.69230743h173.07692227c162.69230742 0 294.23076943-135 294.23076944-297.69230743v-17.30769257c0-86.53846114-135-86.53846114-294.23076944-86.53846114z m-96.92307686 425.76923057C373.53846113 359.76923057 269.69230742 467.07692315 269.69230742 598.61538427 269.69230742 730.15384629 373.53846113 834 501.61538428 834s231.92307685-107.30769258 231.92307685-235.38461573c0-128.07692315-100.38461573-238.84615372-231.92307686-238.8461537z"  horiz-adv-x="1024" />

    
    <glyph glyph-name="yichu1" unicode="&#58938;" d="M511.94578994 834A449.94578994 449.94578994 0 1 1 961.89157901 384.05421006 449.94578994 449.94578994 0 0 1 511.94578994 834z m274.73798321-506.21611816H237.20780586V440.21611816h549.36754629z"  horiz-adv-x="1024" />

    
    <glyph glyph-name="shouye" unicode="&#58928;" d="M416.672-21.142399999999952V264.84053332999997h190.656v-285.98293333h238.31893333V360.16853332999995h142.99093334L512 789.1424 35.36213333 360.16853332999995h142.99093334V-21.141333329999952H416.672z"  horiz-adv-x="1024" />

    
    <glyph glyph-name="mokuai" unicode="&#59013;" d="M408.17169858 355.87501594H166.76558271A76.47652029 76.47652029 0 0 1 90.125 279.44537073000004v-240.93736661a76.47652029 76.47652029 0 0 1 76.64058271-76.40620725h241.40611587a76.61714475 76.61714475 0 0 1 76.64058188 76.40620725V279.46880785999997a76.61714475 76.61714475 0 0 1-76.64058188 76.40620807z m0 449.99975005H166.76558271A76.47652029 76.47652029 0 0 1 90.125 729.46855792v-240.93736578a76.45308233 76.45308233 0 0 1 76.64058271-76.40620808h241.40611587a76.59370762 76.59370762 0 0 1 76.64058188 76.40620808V729.46855792A76.61714475 76.61714475 0 0 1 408.17169858 805.87476599z m449.06224988-449.99975006h-241.40611588a76.61714475 76.61714475 0 0 1-76.64058188-76.4296452v-240.9373666a76.61714475 76.61714475 0 0 1 76.64058188-76.40620725h241.40611588a76.47652029 76.47652029 0 0 1 76.6405827 76.40620724V279.46880785999997a76.47652029 76.47652029 0 0 1-76.6405827 76.42964521z m-88.59370056 48.46872272l145.54679424 145.1483572a65.29683856 65.29683856 0 0 1 0 92.06244828L768.6402479 786.70290134a65.17965125 65.17965125 0 0 1-92.10932337 0l-145.54679426-145.14835721a64.87496357 64.87496357 0 0 1 0-92.06244828l145.54679426-145.1483572a65.13277615 65.13277615 0 0 1 92.10932337 0.02343713z"  horiz-adv-x="1024" />

    
    <glyph glyph-name="xinjianpinggu" unicode="&#58902;" d="M679.278 810.994V642h172.301zM659.278 578c-24.262 0-44 19.738-44 44V832H220.277c-40.215 0-72.93-32.714-72.93-72.93v-750.14c0-40.216 32.716-72.93 72.93-72.93h583.445c40.215 0 72.93 32.715 72.93 72.928V578H659.278z m28.476-290.136h-144.34v-144.34h-64.272v144.34h-144.34v64.272h144.34v144.34h64.272v-144.34h144.34v-64.272z"  horiz-adv-x="1024" />

    
    <glyph glyph-name="arrow-up" unicode="&#58969;" d="M511.83858725 521.11708918l354.5740326-354.56796443c14.89123555-14.90337185 39.06188325-14.90337185 53.95433245 0 14.90458548 14.89123555 14.90458548 39.06188325 0 53.95433243l-381.550592 381.550592c-14.89123555 14.90337185-39.06188325 14.90337185-53.95433245 0l-381.54937837-381.550592c-7.45168592-7.44683141-11.17874252-17.21290903-11.17874251-26.9765594s3.72705659-19.529728 11.17874251-26.97655941c14.89123555-14.90337185 39.06188325-14.90337185 53.95433244 0l354.57281897 354.56796445z"  horiz-adv-x="1024" />

    
    <glyph glyph-name="gerenxinxi1" unicode="&#58956;" d="M160 768h704c53.02 0 96-42.98 96-96v-576c0-53.02-42.98-96-96-96H160c-53.02 0-96 42.98-96 96V672c0 53.02 42.98 96 96 96z m464-438.652v-64h224v64h-224z m-64 192.044v-64h288v64h-288z m-158.448-165.384H313.092c-75.72 0-137.092-62.9-137.092-140.52v-9.052c0-31.704 61.372-31.752 137.092-31.752h88.46c75.704 0 137.092 1.164 137.092 31.752v9.052c0 77.62-61.376 140.52-137.092 140.52z m58.952 141.04c0 58.404-46.196 105.76-103.184 105.76-56.972 0-103.18-47.34-103.18-105.76s46.196-105.78 103.18-105.78c56.988 0 103.184 47.36 103.184 105.776z"  horiz-adv-x="1024" />

    
    <glyph glyph-name="shangchuan" unicode="&#58952;" d="M905.55586625 346.67839312c-17.65340812 0-32.14071563-14.29542281-32.14071563-31.94883093V80.15030999999999H151.92804312V314.72956219c0 17.65340812-14.4873075 31.94883094-32.14071562 31.94883093S87.64661187 332.38297031 87.64661187 314.72956219V15.868878750000022h850.04997V314.72956219c0 17.65340812-14.4873075 31.94883094-32.14071562 31.94883093zM502.98141125 782.8327003100001c2.78233031 2.97421594 6.33220031 4.41335156 9.88207031 4.4133525 3.54987 0 7.09974-1.43913656 9.88207125-4.4133525l151.68498844-161.18329031c4.31740969-4.70117906 5.85248812-11.70497719 3.64581281-18.0371775-2.11073344-6.33220031-7.48351031-10.16989781-13.43194031-10.16989781H546.25144906v-404.58924657c0-18.42094781-15.15890438-33.19608281-33.57985219-33.19608187s-33.57985219 14.87107781-33.57985218 33.19608187V593.44233469H361.08255031c-5.94843094 0-11.32120687 3.8376975-13.43194031 10.16989781-2.20667625 6.33220031-0.76753969 13.43194125 3.64581188 18.13312031L502.98141125 782.8327003100001z"  horiz-adv-x="1024" />

    
    <glyph glyph-name="export" unicode="&#58968;" d="M370.77075195-36.22705078000001V103.84863281000003h196.51794434L262.74768066 524.15808106l-60.47973632-70.03784181V718.28649903c0 47.54333497 36.17248536 86.02294922 80.83190918 86.02294921H851.47753906c44.65942383 0 80.83190918-38.47961426 80.83190919-86.02294922V41.2265625c0-47.4609375-15.90270997-77.45361328-60.47973634-77.45361328H370.77075195z m237.46948242 643.60656739L713.13220215 744.0769043l-81.24389649 1.40075684-64.92919922-84.53979493-64.51721191 83.55102539-80.41992187-1.4831543 102.5024414-137.19177246-105.71594239-137.68615723H501.28833008l63.94042969 83.30383301 64.27001953-86.02294921 86.92932129 1.73034668-108.18786622 140.24047851z m-293.33496093-433.41064454v-210.11352539H202.59753418v210.11352539H90.28979492l168.42041016 210.1135254 168.42041015-210.1135254H314.90527344z m449.14855957 70.0378418v-70.0378418h112.30773926v70.0378418H764.05383301z m-1e-8-140.15808106v-70.03784179h112.30773927v70.03784179H764.05383301z m0 280.23376466v-70.0378418h112.30773927v70.0378418H764.05383301z m-168.42041014-140.0756836v-70.0378418h112.30773925v70.0378418H595.63342286z m-1e-8-140.15808106v-70.03784179h112.30773926v70.03784179H595.63342286z m0 280.23376466v-70.0378418h112.30773926v70.0378418H595.63342286z m0 0"  horiz-adv-x="1024" />

    
    <glyph glyph-name="securityCode-b" unicode="&#58903;" d="M909.09087119 642.24835723a64.02879668 64.02879668 0 0 1-50.5490502 56.16561094 1193.5192377 1193.5192377 0 0 0-163.44192831 37.63095907A607.15025683 607.15025683 0 0 0 549.06930372 821.41665615a66.83707705 66.83707705 0 0 1-78.0702003 0 383.04946846 383.04946846 0 0 0-147.15390059-84.81007266 548.73802089 548.73802089 0 0 0-158.94868007-39.31592782 59.53554756 59.53554756 0 0 1-49.98739395-56.16561094S113.22416094 500.14936026 113.22416094 376.02335976999996c0-224.66244463 265.10168496-442.02335977 397.65252656-442.02335977s357.21328711 153.33211846 393.15927832 438.65342315c8.98649737 168.49683369 2.80828037 269.03327783 2.80828037 269.03327783zM764.7452501 468.69661817l-276.8964627-261.1700921a37.63095908 37.63095908 0 0 0-46.05580107-4.49324824l-7.30152949 6.17821699L281.72099463 368.16017402a37.63095908 37.63095908 0 0 0 56.16561094 51.6723627L463.6975748 287.84335049000003l249.37531348 235.89556699a37.63095908 37.63095908 0 1 0 51.67236182-56.16561094"  horiz-adv-x="1024" />

    
    <glyph glyph-name="chongzhi" unicode="&#58973;" d="M888.98134766 484.88525391H586.84941406l112.91748047 112.92802734c-57.20888672 57.20976563-132.99169922 88.32919922-213.80273437 88.32919922-80.80048828 0-156.59208984-31.11943359-213.80273438-88.33007813-57.21855469-57.21855469-88.33798828-133.00136719-88.33798828-213.81064453 0-80.80224609 31.11943359-156.58505859 88.33886719-213.80361328 57.20976563-57.21943359 133.00136719-88.8328125 213.80273437-88.8328125 80.81015625 0 156.59296875 31.6125 213.80273438 88.8328125a95.92207031 95.92207031 0 0 1 13.55273437 15.05566406l76.28642578-66.75292968c-74.28076172-84.31787109-182.68330078-137.51630859-303.64277343-137.5163086-222.84228516 0-403.0171875 180.17402344-403.0171875 403.0171875 0 222.84228516 180.17578125 403.0171875 403.0171875 403.0171875 111.42597656 0 212.29980469-45.16699219 285.07851562-117.93779297L888.98046875 787.01894531v-302.1328125z"  horiz-adv-x="1024" />

    
    <glyph glyph-name="rizhi" unicode="&#58901;" d="M140.88 624.809c0 51.241 41.54 92.779 92.779 92.779h556.813c51.24 0 92.779-41.538 92.779-92.779v-556.813c0-51.245-41.54-92.778-92.779-92.778H233.66c-51.24 0-92.779 41.533-92.779 92.778V624.809z m231.994-139.214h-92.801v-92.794h92.801v92.794z m0-231.993h-92.801v-92.796h92.801v92.796z m371.185 185.597c0 25.625-20.766 46.396-46.402 46.396H512.066c-25.625 0-46.397-20.766-46.397-46.396 0-25.626 20.766-46.398 46.397-46.398h185.591c25.625 0 46.402 20.766 46.402 46.398m0-231.993c0 25.625-20.766 46.396-46.402 46.396H512.066c-25.625 0-46.397-20.766-46.397-46.396 0-25.626 20.766-46.398 46.397-46.398h185.591c25.625 0 46.402 20.766 46.402 46.398m0 510.383h-46.398v-92.8h46.398v92.8z m-417.589 0h-46.398v-92.8h46.398v92.8z m371.193-46.397H326.47v-46.403h371.192v46.403zM326.47 810.384h371.185v-139.192H326.47z"  horiz-adv-x="1024" />

    
    <glyph glyph-name="kaoheguanli1" unicode="&#58935;" d="M949.20315769 148.39164482l-38.80274071 38.80274072 0.12806185 0.12806184V736.3236005900001c0 56.60333794-45.84614249 102.44948042-102.44948042 102.44948041H172.63609611c-56.60333794 0-102.44948042-45.84614249-102.44948042-102.44948041v-694.09522985c0-56.60333794 45.84614249-102.44948042 102.44948042-102.44948042h490.34882566l124.34805685 27.14911231h0.12806185l163.27885942 163.15079757c4.61022662 4.61022662 3.96991737 12.80618505-1.5367422 18.31284462zM217.45774379 512.34342401l134.08075751 77.34935772c14.08680355 8.19595843 32.14352447 3.3296081 40.21142106-10.75719544 0.64030925-1.02449479 1.15255666-2.17705146 1.66480405-3.32960811l36.88181296-63.90286342 146.63081884 84.6488832-36.36956553 10.11688619c-15.62354577 4.35410293-24.843999 20.61795794-20.4898961 36.2415037 4.35410293 15.62354577 20.61795794 24.843999 36.2415037 20.48989608l100.1443671-27.66135972c13.1903706-3.71379366 21.89857644-15.75160763 21.64245275-28.94197821 0-0.89643296-0.12806185-1.79286591-0.12806185-2.68929887-0.12806185-1.5367422-0.5122474-3.07348441-0.89643296-4.61022662l-0.12806184-0.38418555c-0.38418555-2.43317516-1.02449479-4.73828847-1.92092777-6.91533992l-25.74043195-92.71677978c-4.35410293-15.62354577-20.61795794-24.843999-36.2415037-20.48989609-15.62354577 4.35410293-24.843999 20.61795794-20.48989608 36.24150369l7.42758732 26.63686491-165.19978717-95.40607862c-7.55564919-4.35410293-16.13579317-4.99441216-23.81950419-2.56123703-6.91533993 2.04898962-13.06230875 6.65921624-17.03222612 13.44649431l-38.546617 66.72022412-108.46838741-62.6222449c-14.08680355-8.19595843-32.14352447-3.3296081-40.21142106 10.75719544-8.19595843 14.08680355-3.3296081 32.14352447 10.75719544 40.33948292zM575.00643046 78.08568889000003H226.42207333c-16.26385502 0-29.45422562 13.1903706-29.45422563 29.45422562s13.1903706 29.45422562 29.45422563 29.45422562h348.45629528c16.26385502 0 29.45422562-13.1903706 29.45422563-29.45422562s-13.06230875-29.45422562-29.32616378-29.45422562zM226.42207333 252.24980560999995c-16.26385502 0-29.45422562 13.1903706-29.45422563 29.45422561s13.1903706 29.45422562 29.45422563 29.45422562h453.46701271c16.26385502 0 29.45422562-13.1903706 29.45422561-29.45422562s-13.1903706-29.45422562-29.45422561-29.45422561H226.42207333z m467.16963071-281.99219486l36.88181296 36.88181294 23.69144235-23.69144234-60.57325531-13.1903706zM917.95606617 131.99972795999997L784.51561791-1.3126584300000559c-2.561237-2.561237-6.91533993-2.17705146-9.98882432 0.7683711l-25.86849382 25.86849379L891.1911394 167.72898425999995l25.86849381-25.86849382c3.07348441-2.94542257 3.3296081-7.29952548 0.89643296-9.86076248z"  horiz-adv-x="1024" />

    
    <glyph glyph-name="arrow-right" unicode="&#59577;" d="M649.11708919 384.16141275l-354.56796444-354.5740326c-14.90337185-14.89123555-14.90337185-39.06188325 0-53.95433245 14.89123555-14.90458548 39.06188325-14.90458548 53.95433244 0l381.550592 381.550592c14.90337185 14.89123555 14.90337185 39.06188325 0 53.95433245l-381.55059201 381.54937837c-7.44683141 7.45168592-17.21290903 11.17874252-26.9765594 11.17874251s-19.529728-3.72705659-26.97655941-11.17874251c-14.90337185-14.89123555-14.90337185-39.06188325 0-53.95433244l354.56796445-354.57281897z"  horiz-adv-x="1024" />

    
    <glyph glyph-name="jiantou-up" unicode="&#59579;" d="M982.6577166 147.87931233999996l-944.52517007 0 472.26965495 472.24137532L982.6577166 147.87931233999996z"  horiz-adv-x="1024" />

    
    <glyph glyph-name="kaohe-shixin" unicode="&#58907;" d="M242.271 30.971h545.085v-65.897H242.271zM477.45 111.62V226.8l114.196-57.591zM912.623 802.927H114.457c-31.484 0-57.005-30.042-57.005-67.102v-590.493c0-37.061 25.521-67.103 57.005-67.103H912.623c31.482 0 57.006 30.041 57.006 67.103V735.825c0 37.06-25.524 67.102-57.006 67.102zM193.896 605.85h391.553v-65.899H193.896V605.85z m0-175.572h391.553v-65.899H193.896v65.899zM639.75 115.687H388.878A129.795 129.795 0 0 0 384.815 148c0 71.521 57.979 129.5 129.5 129.5s129.5-57.979 129.5-129.5a129.784 129.784 0 0 0-4.065-32.313z m170.457 220.555l-15.412-15.567-52.147 52.675-52.037-52.563-15.412 15.567 52.037 52.563-54.521 55.072 15.412 15.567 54.521-55.072 54.633 55.184 15.412-15.567-54.633-55.185 52.147-52.674z m-59.63 206.979l0.2-0.202-15.412-15.568-0.2 0.202-0.193-0.195-15.412 15.567 0.193 0.196-45.934 46.397 15.412 15.568 45.935-46.397L841.643 666.34l15.411-15.569-106.477-107.55z"  horiz-adv-x="1024" />

    
    <glyph glyph-name="bianji" unicode="&#58898;" d="M143.7 197.7v-139.5h139.5l404 407.6-139.5 139.5-404-407.6z m649.9 374.7c14.7 14.7 14.7 36.7 0 51.4l-84.5 84.5c-14.7 14.7-36.7 14.7-51.4 0l-66.1-66.1 139.5-139.5 62.5 69.7zM474.1 131.7l-73.4-73.4h477.4v73.4h-404z"  horiz-adv-x="1024" />

    
    <glyph glyph-name="arrow-right2" unicode="&#59585;" d="M549.853 225.30999999999995l-486.596 0 0 325.46L549.853 550.77l0 183.778L958.416 384.06l-408.564-350.485L549.852 225.30999999999995z m0 0"  horiz-adv-x="1024" />

    
    <glyph glyph-name="arrow-left" unicode="&#59586;" d="M374.88291081 383.83858725000005l354.56796444 354.5740326c14.90337185 14.89123555 14.90337185 39.06188325 0 53.95433245-14.89123555 14.90458548-39.06188325 14.90458548-53.95433244 0l-381.550592-381.550592c-14.90337185-14.89123555-14.90337185-39.06188325 0-53.95433245l381.55059201-381.54937837c7.44683141-7.45168592 17.21290903-11.17874252 26.9765594-11.17874251s19.529728 3.72705659 26.97655941 11.17874251c14.90337185 14.89123555 14.90337185 39.06188325 0 53.95433244l-354.56796445 354.57281897z"  horiz-adv-x="1024" />

    
    <glyph glyph-name="toggle" unicode="&#58881;" d="M832.2 631.4H192.3c-35.2 0-64 28.8-64 64s28.8 64 64 64h639.8c35.2 0 64-28.8 64-64 0.1-35.2-28.7-64-63.9-64zM832.2 318.1H196.1c-35.2 0-64 28.8-64 64s28.8 64 64 64h636.1c35.2 0 64-28.8 64-64s-28.8-64-64-64zM832.2-0.8999999999999773H192.3c-35.2 0-64 28.8-64 64s28.8 64 64 64h639.8c35.2 0 64-28.8 64-64 0.1-35.2-28.7-64-63.9-64z"  horiz-adv-x="1024" />

    
    <glyph glyph-name="chanpin" unicode="&#58896;" d="M542.827-62.359l0.595 510.235L959.079 592.96v-509.52L542.827-62.358zM66.361 682.178l446.032 148.18 446.032-148.18-446.032-148.18-446.032 148.18z m415.598-744.537L65.707 83.439v509.52l415.657-145.084 0.595-510.235z"  horiz-adv-x="1025" />

    
    <glyph glyph-name="xinjianmoban" unicode="&#59872;" d="M185.6 857.6h358.4v-121.6c0-44.8 19.2-89.6 64-102.4 12.8-6.4 25.6-6.4 44.8-6.4h128v-230.4c-38.4 6.4-83.2 0-121.6-12.8-51.2-19.2-96-57.6-128-102.4H262.4c-19.2 0-38.4-6.4-44.8-25.6-25.6-12.8-25.6-38.4-19.2-51.2 6.4-19.2 32-38.4 51.2-38.4h230.4c-6.4-64 6.4-121.6 44.8-172.8H198.4c-12.8 0-32 6.4-44.8 12.8-25.6 12.8-51.2 32-64 57.6-12.8 12.8-12.8 32-12.8 51.2V729.6c0 32 19.2 70.4 38.4 89.6 19.2 19.2 44.8 38.4 70.4 38.4M243.2 512c-19.2 0-38.4-19.2-44.8-32-6.4-25.6-6.4-44.8 6.4-64 12.8-12.8 25.6-25.6 44.8-19.2h345.6c25.6 0 51.2 19.2 57.6 51.2 6.4 32-19.2 64-57.6 64H256h-12.8zM601.6 857.6h6.4c25.6-6.4 44.8-25.6 57.6-38.4 32-25.6 64-57.6 89.6-89.6 12.8-12.8 19.2-25.6 19.2-44.8H640c-6.4 0-12.8 6.4-19.2 12.8-12.8 12.8-19.2 32-19.2 44.8V857.6z m121.6-518.4h19.2c19.2 0 44.8-6.4 64-12.8 51.2-12.8 89.6-51.2 115.2-96 25.6-51.2 32-108.8 12.8-160-19.2-57.6-57.6-102.4-115.2-121.6-51.2-19.2-108.8-19.2-160 0-44.8 19.2-83.2 51.2-102.4 96-19.2 44.8-25.6 102.4-6.4 153.6 19.2 64 70.4 115.2 134.4 128 12.8 0 19.2 6.4 32 6.4 0 6.4 6.4 6.4 6.4 6.4m-12.8-83.2v-89.6h-64-6.4c-12.8 0-25.6 0-32-12.8-12.8-12.8-6.4-44.8 19.2-44.8h89.6v-83.2c0-12.8 12.8-32 32-25.6 12.8 0 25.6 12.8 25.6 25.6v89.6h89.6c12.8 0 25.6 12.8 25.6 25.6s-6.4 25.6-19.2 25.6h-96V256c0 12.8-12.8 25.6-19.2 25.6-25.6 6.4-38.4-6.4-44.8-25.6z"  horiz-adv-x="1024" />

    
    </font>
</defs>
</svg>
